<?xml version="1.0" encoding="utf-8"?>
<!-- Generator: Adobe Illustrator 23.0.2, SVG Export Plug-In . SVG Version: 6.00 Build 0)  -->
<svg version="1.1" id="图层_1" xmlns="http://www.w3.org/2000/svg" xmlns:xlink="http://www.w3.org/1999/xlink" x="0px" y="0px"
	 viewBox="0 0 566.93 566.93" style="enable-background:new 0 0 566.93 566.93;" xml:space="preserve">
<style type="text/css">
	.st0{fill:#FFFFFF;}
</style>
<g>
	<path class="st0" d="M283.46,274.46c30.81,0,55.02-24.21,55.02-55.02c0-30.81-24.21-55.02-55.02-55.02
		c-30.81,0-55.02,24.21-55.02,55.02C228.44,250.25,252.65,274.46,283.46,274.46z"/>
	<path class="st0" d="M283.47,0C126.36,0,0,127.56,0,283.46c0,155.91,126.36,283.46,283.47,283.46
		c157.1,0,283.46-127.56,283.46-283.46C566.93,127.56,440.57,0,283.47,0z M283.46,120.4c55.02,0,99.04,44.02,99.04,99.04
		c0,55.02-44.02,99.04-99.04,99.04c-55.02,0-99.04-44.02-99.04-99.04C184.42,164.42,228.44,120.4,283.46,120.4z M426.52,428.53
		H382.5v-24.21l-19.81-19.81H204.23l-19.81,19.81v24.21H140.4v-44.02h2.2l44.02-44.02h193.68l46.22,44.02V428.53z"/>
</g>
</svg>
