<svg id="图层_1" data-name="图层 1" xmlns="http://www.w3.org/2000/svg" xmlns:xlink="http://www.w3.org/1999/xlink" viewBox="0 0 113.39 85.04"><defs><style>.cls-1{fill:none;}.cls-2{clip-path:url(#clip-path);}.cls-3{fill:#d8b147;}</style><clipPath id="clip-path"><rect class="cls-1" width="113.39" height="85.04"/></clipPath></defs><title>catgold</title><g class="cls-2"><path class="cls-3" d="M81.38,68.84c5-.74,4.86,3.46,5.71,6.51.38,1.37-.08,3,0,4.45.1,1.81.1,3.77,2.23,4.61s3.92.06,5.48-1.36a17.62,17.62,0,0,0,4.61-7c.92-2.51,2.27-3.22,4.89-2.51l2.15.55a21.81,21.81,0,0,0-11.27-6.37A21.39,21.39,0,0,0,81.38,68.84Z"/><path class="cls-3" d="M37.14,68.84c-5-.74-4.86,3.45-5.71,6.51-.38,1.37.08,3,0,4.45-.1,1.81-.1,3.77-2.23,4.61s-3.92.06-5.48-1.36a17.62,17.62,0,0,1-4.61-7c-.92-2.51-2.27-3.22-4.89-2.51l-2.15.55a21.81,21.81,0,0,1,11.27-6.37A21.39,21.39,0,0,1,37.14,68.84Z"/></g></svg>