<svg id="图层_1" data-name="图层 1" xmlns="http://www.w3.org/2000/svg" xmlns:xlink="http://www.w3.org/1999/xlink" viewBox="0 0 113.39 85.04"><defs><style>.cls-1{fill:none;}.cls-2{clip-path:url(#clip-path);}.cls-11,.cls-3{fill:#d8b147;}.cls-4{fill:#62421d;}.cls-5{fill:#c9231d;}.cls-6{fill:#a15b23;}.cls-7{fill:#975525;}.cls-8{fill:#fff;}.cls-9{font-size:15.91px;fill:#231815;font-family:FZPWFW--GB1-0, FZPangWa-M18T;}.cls-10{fill:#b38128;}.cls-11{opacity:0.5;}</style><clipPath id="clip-path"><rect class="cls-1" width="113.39" height="85.04"/></clipPath></defs><title>catgold</title><g class="cls-2"><path class="cls-3" d="M74.52,126.51c16.22-1.6,27.78-9,31.92-25.64a54.81,54.81,0,0,0,1-6.75,60.87,60.87,0,0,0,0-12.78c-1.07-11.11-3.6-22.51-10.65-33.35-1.43-2.19-1.77-4.93-2.61-7.41a40.14,40.14,0,0,0-6-26.85,10.29,10.29,0,0,1-.73-2.38C85,9,85.87,6,85.71,3.19,85,.24,83.18-.09,80.91,1.41a42.22,42.22,0,0,0-5.08,4c-13.44-2.64-21.33-2.64-34.4.72C39.14,4.2,36.9,2.16,34,1.31,31.31.55,28.9.55,28.63,4.25c1.11,2.61,1.17,5.07-1.07,7.18-3,6.64-8.61,16.13-6.62,30.2-1.3,12-4.22,9.39-7,19.63-3.57,12.95-5.88,26-2.63,39.38a28.86,28.86,0,0,0,2.78,8c2.4,4,0,5.48-3.06,6.44-3.5,1.09-6.6,0-9-2.82-2.12-2.47-2-5.17-.31-7.84,2-3.17,2.12-6.18-1.52-8s-5.9.65-7.59,3.6a16.32,16.32,0,0,0,3,20.12c6.12,6,15.4,7.35,22.46,2.63,3.33-2.23,5.67-2.69,9.11-.36,3.87,2.62,8.49,3.72,13.2,4.1.38.1,0-.15,0,0h0c4.47.28,9.67-.21,14.11.88h7c4.1-1,9-.59,13.08-.83,0,0,.56-.33,0,0C74.56,126.38,74.18,126.6,74.52,126.51Z"/><path class="cls-4" d="M48.58,26.5a5.31,5.31,0,0,0-.11-.87,13.27,13.27,0,0,0-1.86-2,5.83,5.83,0,0,0-4.1-.95c-2-.41-3.45.63-4.87,1.68a5.85,5.85,0,0,0-1.71,1.79c-.11.19-.45.44,0,.61.82-.19,1.09-1.08,1.81-1.4A6.25,6.25,0,0,1,40.23,24a12.61,12.61,0,0,1,4.25.2h0l.34.37a1.2,1.2,0,0,1,.8.33,4.62,4.62,0,0,1,1.24,1.91.88.88,0,0,0,1.06.7C48.45,27.44,48.56,27,48.58,26.5Z"/><path class="cls-4" d="M79.4,24.27a4.22,4.22,0,0,0-1.64-1.47h0a6.07,6.07,0,0,0-1.59-1.25,13.91,13.91,0,0,0-5.11-.79,4.27,4.27,0,0,0-2.2.83,9,9,0,0,0-3.08,3.52c-.08,1.22-.08,1.22,1.14,1.45a1.7,1.7,0,0,0,1-1.14,4.74,4.74,0,0,1,2.16-2.36,8,8,0,0,1,4-.8,7.1,7.1,0,0,1,3.14,1.39c.34.23.67.5,1.12.37q0,.16.15.18c.33.37.49.91,1,1.13C79.61,24.92,79.21,24.63,79.4,24.27Z"/><path class="cls-5" d="M20.94,41.63s22.81,22.87,73.68-1.2C96,42.13,96.79,48,96.79,48s-42.05,25.58-77.45.95C17.89,45.94,20.94,41.63,20.94,41.63Z"/><path class="cls-6" d="M55.33,37.64c-2.82,1-5.11.63-6.92-3.09,2.87,1,5.36,3.27,7.43.29,2.46-3.51-2.7-3.22-3-6,3.2.84,6.2,1.76,9.46-.32-.37,2.84-5.39,3.06-2.46,6.34C62,37.42,64.19,36,67.13,34c-1.43,4.45-3.87,4.5-6.74,3.71A7.77,7.77,0,0,1,55.33,37.64Z"/><path class="cls-5" d="M27.61,13.27c-.59-3.45.48-6.65,1.46-9.87C34.76,8.8,34.42,11.16,27.61,13.27Z"/><path class="cls-5" d="M85.51,2.73c1.38,3.61,2.57,7.26,2.34,11.21C80.57,11.56,84.48,6.85,85.51,2.73Z"/><path class="cls-7" d="M75.21,40.36a17,17,0,0,1,9-3.44C82.13,39.16,79.45,40,75.21,40.36Z"/><path class="cls-7" d="M81.5,34.1c-1.3,2.62-3.86,2.87-6.21,3.56C76.67,35.26,79.12,34.8,81.5,34.1Z"/><path class="cls-7" d="M32.75,35.22c3-.72,5.42.25,8.82,1.84C37.52,38.09,35.1,36.65,32.75,35.22Z"/><path class="cls-7" d="M39,38.92c-2.75,1.43-5.26.88-7.6-1.07Z"/><circle class="cls-5" cx="58.62" cy="81.43" r="14.41"/><circle class="cls-8" cx="58.62" cy="81.43" r="11.85"/><text class="cls-9" transform="translate(50.79 87.18)">财</text><circle class="cls-3" cx="87.1" cy="49.17" r="1.82"/><circle class="cls-3" cx="83.48" cy="50.29" r="1.41"/><circle class="cls-3" cx="27.33" cy="49.79" r="1.67"/><circle class="cls-3" cx="30.88" cy="51.45" r="1.19"/><circle class="cls-10" cx="58.55" cy="56.41" r="5.12"/><circle class="cls-11" cx="57.86" cy="57.37" r="3.22"/><circle class="cls-3" cx="56.42" cy="56.94" r="1.79"/></g></svg>