<?xml version="1.0" encoding="utf-8"?>
<!-- Generator: Adobe Illustrator 23.0.2, SVG Export Plug-In . SVG Version: 6.00 Build 0)  -->
<svg version="1.1" id="图层_1" xmlns="http://www.w3.org/2000/svg" xmlns:xlink="http://www.w3.org/1999/xlink" x="0px" y="0px"
	 viewBox="0 0 110 242" style="enable-background:new 0 0 110 242;" xml:space="preserve">
<style type="text/css">
	.st0{fill:#5CEB8E;}
	.st1{opacity:0.2;fill:#999899;enable-background:new    ;}
	.st2{opacity:0.2;}
	.st3{fill:#999899;}
</style>
<g>
	<g>
		<g>
			<path class="st0" d="M5,65c-0.4,0.2-0.9,0.1-1.1-0.3c-0.1-0.2-0.1-0.4-0.1-0.6l1.1-6.6L0.2,53c-0.3-0.3-0.3-0.8,0-1.1
				c0.1-0.1,0.3-0.2,0.4-0.2l6.6-1l2.9-6c0.2-0.4,0.7-0.6,1.1-0.4c0.2,0.1,0.3,0.2,0.4,0.4l2.9,6l6.6,1c0.4,0.1,0.7,0.5,0.7,0.9
				c0,0.2-0.1,0.3-0.2,0.5l-4.8,4.6l1.1,6.5c0.1,0.4-0.2,0.9-0.7,0.9c-0.2,0-0.4,0-0.5-0.1l-5.9-3L5,65z"/>
		</g>
		<path class="st0" d="M27.1,65c-0.4,0.2-0.9,0.1-1.1-0.3c-0.1-0.2-0.1-0.4-0.1-0.6l1.1-6.6L22.2,53c-0.3-0.3-0.3-0.8,0-1.1
			c0.1-0.1,0.3-0.2,0.4-0.2l6.6-1l2.9-6c0.2-0.4,0.7-0.6,1.1-0.4c0.2,0.1,0.3,0.2,0.4,0.4l2.9,6l6.6,1c0.4,0.1,0.7,0.5,0.7,0.9
			c0,0.2-0.1,0.3-0.2,0.5l-4.8,4.6l1.1,6.5c0.1,0.4-0.2,0.9-0.7,0.9c-0.2,0-0.4,0-0.5-0.1L33,62L27.1,65z"/>
		<path class="st0" d="M49.1,65c-0.4,0.2-0.9,0.1-1.1-0.3c-0.1-0.2-0.1-0.4-0.1-0.6l1.1-6.6L44.3,53c-0.3-0.3-0.3-0.8,0-1.1
			c0.1-0.1,0.3-0.2,0.4-0.2l6.6-1l2.9-6c0.2-0.4,0.7-0.6,1.1-0.4c0.2,0.1,0.3,0.2,0.4,0.4l2.9,6l6.6,1c0.4,0.1,0.7,0.5,0.7,0.9
			c0,0.2-0.1,0.3-0.2,0.5l-4.8,4.6l1.1,6.5c0.1,0.4-0.2,0.9-0.7,0.9c-0.2,0-0.4,0-0.5-0.1L55,62L49.1,65z"/>
		<path class="st0" d="M71.1,65c-0.4,0.2-0.9,0.1-1.1-0.3c-0.1-0.2-0.1-0.4-0.1-0.6l1.1-6.6L66.3,53c-0.3-0.3-0.3-0.8,0-1.1
			c0.1-0.1,0.3-0.2,0.4-0.2l6.6-1l2.9-6c0.2-0.4,0.7-0.6,1.1-0.4c0.2,0.1,0.3,0.2,0.4,0.4l2.9,6l6.6,1c0.4,0.1,0.7,0.5,0.7,0.9
			c0,0.2-0.1,0.3-0.2,0.5L83,57.7l1.1,6.5c0.1,0.4-0.2,0.9-0.7,0.9c-0.2,0-0.4,0-0.5-0.1L77,62L71.1,65z"/>
		<path class="st1" d="M93.2,65c-0.4,0.2-0.9,0.1-1.1-0.3C92,64.5,92,64.3,92,64.1l1.1-6.6L88.4,53c-0.3-0.3-0.3-0.8,0-1.1
			c0.1-0.1,0.3-0.2,0.4-0.2l6.6-1l2.9-6c0.2-0.4,0.7-0.6,1.1-0.4c0.2,0.1,0.3,0.2,0.4,0.4l2.9,6l6.6,1c0.4,0.1,0.7,0.5,0.7,0.9
			c0,0.2-0.1,0.3-0.2,0.5l-4.8,4.6l1.1,6.5c0.1,0.4-0.2,0.9-0.7,0.9c-0.2,0-0.4,0-0.5-0.1L99,62L93.2,65z"/>
	</g>
	<g>
		<g>
			<path class="st0" d="M5,109.2c-0.4,0.2-0.9,0.1-1.1-0.3c-0.1-0.2-0.1-0.4-0.1-0.6l1.1-6.6l-4.7-4.6c-0.3-0.3-0.3-0.8,0-1.1
				c0.1-0.1,0.3-0.2,0.4-0.2l6.6-1l2.9-6c0.2-0.4,0.7-0.6,1.1-0.4c0.2,0.1,0.3,0.2,0.4,0.4l2.9,6l6.6,1c0.4,0.1,0.7,0.5,0.7,0.9
				c0,0.2-0.1,0.3-0.2,0.5l-4.8,4.6l1.1,6.5c0.1,0.4-0.2,0.9-0.7,0.9c-0.2,0-0.4,0-0.5-0.1l-5.9-3L5,109.2z"/>
		</g>
		<path class="st0" d="M27.1,109.2c-0.4,0.2-0.9,0.1-1.1-0.3c-0.1-0.2-0.1-0.4-0.1-0.6l1.1-6.6l-4.7-4.6c-0.3-0.3-0.3-0.8,0-1.1
			c0.1-0.1,0.3-0.2,0.4-0.2l6.6-1l2.9-6c0.2-0.4,0.7-0.6,1.1-0.4c0.2,0.1,0.3,0.2,0.4,0.4l2.9,6l6.6,1c0.4,0.1,0.7,0.5,0.7,0.9
			c0,0.2-0.1,0.3-0.2,0.5l-4.8,4.6l1.1,6.5c0.1,0.4-0.2,0.9-0.7,0.9c-0.2,0-0.4,0-0.5-0.1l-5.9-3L27.1,109.2z"/>
		<path class="st0" d="M49.1,109.2c-0.4,0.2-0.9,0.1-1.1-0.3c-0.1-0.2-0.1-0.4-0.1-0.6l1.1-6.6l-4.7-4.6c-0.3-0.3-0.3-0.8,0-1.1
			c0.1-0.1,0.3-0.2,0.4-0.2l6.6-1l2.9-6c0.2-0.4,0.7-0.6,1.1-0.4c0.2,0.1,0.3,0.2,0.4,0.4l2.9,6l6.6,1c0.4,0.1,0.7,0.5,0.7,0.9
			c0,0.2-0.1,0.3-0.2,0.5l-4.8,4.6l1.1,6.5c0.1,0.4-0.2,0.9-0.7,0.9c-0.2,0-0.4,0-0.5-0.1l-5.9-3L49.1,109.2z"/>
		<path class="st1" d="M71.1,109.2c-0.4,0.2-0.9,0.1-1.1-0.3c-0.1-0.2-0.1-0.4-0.1-0.6l1.1-6.6l-4.7-4.6c-0.3-0.3-0.3-0.8,0-1.1
			c0.1-0.1,0.3-0.2,0.4-0.2l6.6-1l2.9-6c0.2-0.4,0.7-0.6,1.1-0.4c0.2,0.1,0.3,0.2,0.4,0.4l2.9,6l6.6,1c0.4,0.1,0.7,0.5,0.7,0.9
			c0,0.2-0.1,0.3-0.2,0.5l-4.8,4.6l1.1,6.5c0.1,0.4-0.2,0.9-0.7,0.9c-0.2,0-0.4,0-0.5-0.1l-5.9-3L71.1,109.2z"/>
		<path class="st1" d="M93.2,109.2c-0.4,0.2-0.9,0.1-1.1-0.3c-0.1-0.2-0.1-0.4-0.1-0.6l1.1-6.6l-4.7-4.6c-0.3-0.3-0.3-0.8,0-1.1
			c0.1-0.1,0.3-0.2,0.4-0.2l6.6-1l2.9-6c0.2-0.4,0.7-0.6,1.1-0.4c0.2,0.1,0.3,0.2,0.4,0.4l2.9,6l6.6,1c0.4,0.1,0.7,0.5,0.7,0.9
			c0,0.2-0.1,0.3-0.2,0.5l-4.8,4.6l1.1,6.5c0.1,0.4-0.2,0.9-0.7,0.9c-0.2,0-0.4,0-0.5-0.1l-5.9-3L93.2,109.2z"/>
	</g>
	<g>
		<g>
			<path class="st0" d="M5,153.5c-0.4,0.2-0.9,0.1-1.1-0.3c-0.1-0.2-0.1-0.4-0.1-0.6l1.1-6.6l-4.7-4.6c-0.3-0.3-0.3-0.8,0-1.1
				c0.1-0.1,0.3-0.2,0.4-0.2l6.6-1l2.9-6c0.2-0.4,0.7-0.6,1.1-0.4c0.2,0.1,0.3,0.2,0.4,0.4l2.9,6l6.6,1c0.4,0.1,0.7,0.5,0.7,0.9
				c0,0.2-0.1,0.3-0.2,0.5l-4.8,4.6l1.1,6.5c0.1,0.4-0.2,0.9-0.7,0.9c-0.2,0-0.4,0-0.5-0.1l-5.9-3L5,153.5z"/>
		</g>
		<path class="st0" d="M27.1,153.5c-0.4,0.2-0.9,0.1-1.1-0.3c-0.1-0.2-0.1-0.4-0.1-0.6L27,146l-4.7-4.6c-0.3-0.3-0.3-0.8,0-1.1
			c0.1-0.1,0.3-0.2,0.4-0.2l6.6-1l2.9-6c0.2-0.4,0.7-0.6,1.1-0.4c0.2,0.1,0.3,0.2,0.4,0.4l2.9,6l6.6,1c0.4,0.1,0.7,0.5,0.7,0.9
			c0,0.2-0.1,0.3-0.2,0.5l-4.8,4.6l1.1,6.5c0.1,0.4-0.2,0.9-0.7,0.9c-0.2,0-0.4,0-0.5-0.1l-5.9-3L27.1,153.5z"/>
		<path class="st1" d="M49.1,153.5c-0.4,0.2-0.9,0.1-1.1-0.3c-0.1-0.2-0.1-0.4-0.1-0.6L49,146l-4.7-4.6c-0.3-0.3-0.3-0.8,0-1.1
			c0.1-0.1,0.3-0.2,0.4-0.2l6.6-1l2.9-6c0.2-0.4,0.7-0.6,1.1-0.4c0.2,0.1,0.3,0.2,0.4,0.4l2.9,6l6.6,1c0.4,0.1,0.7,0.5,0.7,0.9
			c0,0.2-0.1,0.3-0.2,0.5l-4.8,4.6l1.1,6.5c0.1,0.4-0.2,0.9-0.7,0.9c-0.2,0-0.4,0-0.5-0.1l-5.9-3L49.1,153.5z"/>
		<path class="st1" d="M71.1,153.5c-0.4,0.2-0.9,0.1-1.1-0.3c-0.1-0.2-0.1-0.4-0.1-0.6L71,146l-4.7-4.6c-0.3-0.3-0.3-0.8,0-1.1
			c0.1-0.1,0.3-0.2,0.4-0.2l6.6-1l2.9-6c0.2-0.4,0.7-0.6,1.1-0.4c0.2,0.1,0.3,0.2,0.4,0.4l2.9,6l6.6,1c0.4,0.1,0.7,0.5,0.7,0.9
			c0,0.2-0.1,0.3-0.2,0.5l-4.8,4.6l1.1,6.5c0.1,0.4-0.2,0.9-0.7,0.9c-0.2,0-0.4,0-0.5-0.1l-5.9-3L71.1,153.5z"/>
		<path class="st1" d="M93.2,153.5c-0.4,0.2-0.9,0.1-1.1-0.3c-0.1-0.2-0.1-0.4-0.1-0.6l1.1-6.6l-4.7-4.6c-0.3-0.3-0.3-0.8,0-1.1
			c0.1-0.1,0.3-0.2,0.4-0.2l6.6-1l2.9-6c0.2-0.4,0.7-0.6,1.1-0.4c0.2,0.1,0.3,0.2,0.4,0.4l2.9,6l6.6,1c0.4,0.1,0.7,0.5,0.7,0.9
			c0,0.2-0.1,0.3-0.2,0.5l-4.8,4.6l1.1,6.5c0.1,0.4-0.2,0.9-0.7,0.9c-0.2,0-0.4,0-0.5-0.1l-5.9-3L93.2,153.5z"/>
	</g>
	<g>
		<g>
			<path class="st0" d="M5,197.7c-0.4,0.2-0.9,0.1-1.1-0.3c-0.1-0.2-0.1-0.4-0.1-0.6l1.1-6.6l-4.7-4.6c-0.3-0.3-0.3-0.8,0-1.1
				c0.1-0.1,0.3-0.2,0.4-0.2l6.6-1l2.9-6c0.2-0.4,0.7-0.6,1.1-0.4c0.2,0.1,0.3,0.2,0.4,0.4l2.9,6l6.6,1c0.4,0.1,0.7,0.5,0.7,0.9
				c0,0.2-0.1,0.3-0.2,0.5l-4.8,4.6l1.1,6.5c0.1,0.4-0.2,0.9-0.7,0.9c-0.2,0-0.4,0-0.5-0.1l-5.9-3L5,197.7z"/>
		</g>
		<path class="st1" d="M27.1,197.7c-0.4,0.2-0.9,0.1-1.1-0.3c-0.1-0.2-0.1-0.4-0.1-0.6l1.1-6.6l-4.7-4.6c-0.3-0.3-0.3-0.8,0-1.1
			c0.1-0.1,0.3-0.2,0.4-0.2l6.6-1l2.9-6c0.2-0.4,0.7-0.6,1.1-0.4c0.2,0.1,0.3,0.2,0.4,0.4l2.9,6l6.6,1c0.4,0.1,0.7,0.5,0.7,0.9
			c0,0.2-0.1,0.3-0.2,0.5l-4.8,4.6l1.1,6.5c0.1,0.4-0.2,0.9-0.7,0.9c-0.2,0-0.4,0-0.5-0.1l-5.9-3L27.1,197.7z"/>
		<path class="st1" d="M49.1,197.7c-0.4,0.2-0.9,0.1-1.1-0.3c-0.1-0.2-0.1-0.4-0.1-0.6l1.1-6.6l-4.7-4.6c-0.3-0.3-0.3-0.8,0-1.1
			c0.1-0.1,0.3-0.2,0.4-0.2l6.6-1l2.9-6c0.2-0.4,0.7-0.6,1.1-0.4c0.2,0.1,0.3,0.2,0.4,0.4l2.9,6l6.6,1c0.4,0.1,0.7,0.5,0.7,0.9
			c0,0.2-0.1,0.3-0.2,0.5l-4.8,4.6l1.1,6.5c0.1,0.4-0.2,0.9-0.7,0.9c-0.2,0-0.4,0-0.5-0.1l-5.9-3L49.1,197.7z"/>
		<path class="st1" d="M71.1,197.7c-0.4,0.2-0.9,0.1-1.1-0.3c-0.1-0.2-0.1-0.4-0.1-0.6l1.1-6.6l-4.7-4.6c-0.3-0.3-0.3-0.8,0-1.1
			c0.1-0.1,0.3-0.2,0.4-0.2l6.6-1l2.9-6c0.2-0.4,0.7-0.6,1.1-0.4c0.2,0.1,0.3,0.2,0.4,0.4l2.9,6l6.6,1c0.4,0.1,0.7,0.5,0.7,0.9
			c0,0.2-0.1,0.3-0.2,0.5l-4.8,4.6l1.1,6.5c0.1,0.4-0.2,0.9-0.7,0.9c-0.2,0-0.4,0-0.5-0.1l-5.9-3L71.1,197.7z"/>
		<path class="st1" d="M93.2,197.7c-0.4,0.2-0.9,0.1-1.1-0.3c-0.1-0.2-0.1-0.4-0.1-0.6l1.1-6.6l-4.7-4.6c-0.3-0.3-0.3-0.8,0-1.1
			c0.1-0.1,0.3-0.2,0.4-0.2l6.6-1l2.9-6c0.2-0.4,0.7-0.6,1.1-0.4c0.2,0.1,0.3,0.2,0.4,0.4l2.9,6l6.6,1c0.4,0.1,0.7,0.5,0.7,0.9
			c0,0.2-0.1,0.3-0.2,0.5l-4.8,4.6l1.1,6.5c0.1,0.4-0.2,0.9-0.7,0.9c-0.2,0-0.4,0-0.5-0.1l-5.9-3L93.2,197.7z"/>
	</g>
	<g>
		<g>
			<path class="st0" d="M5,20.8c-0.4,0.2-0.9,0.1-1.1-0.3c-0.1-0.2-0.1-0.4-0.1-0.6l1.1-6.6L0.2,8.8c-0.3-0.3-0.3-0.8,0-1.1
				c0.1-0.1,0.3-0.2,0.4-0.2l6.6-1l2.9-6c0.2-0.4,0.7-0.6,1.1-0.4c0.2,0.1,0.3,0.2,0.4,0.4l2.9,6l6.6,1c0.4,0.1,0.7,0.5,0.7,0.9
				c0,0.2-0.1,0.3-0.2,0.5l-4.8,4.6L18,20c0.1,0.4-0.2,0.9-0.7,0.9c-0.2,0-0.4,0-0.5-0.1l-5.9-3L5,20.8z"/>
		</g>
		<path class="st0" d="M27.1,20.8c-0.4,0.2-0.9,0.1-1.1-0.3c-0.1-0.2-0.1-0.4-0.1-0.6l1.1-6.6l-4.7-4.6c-0.3-0.3-0.3-0.8,0-1.1
			c0.1-0.1,0.3-0.2,0.4-0.2l6.6-1l2.9-6C32.4,0,32.9-0.2,33.3,0c0.2,0.1,0.3,0.2,0.4,0.4l2.9,6l6.6,1c0.4,0.1,0.7,0.5,0.7,0.9
			c0,0.2-0.1,0.3-0.2,0.5l-4.8,4.6L40,20c0.1,0.4-0.2,0.9-0.7,0.9c-0.2,0-0.4,0-0.5-0.1l-5.9-3L27.1,20.8z"/>
		<path class="st0" d="M49.1,20.8c-0.4,0.2-0.9,0.1-1.1-0.3c-0.1-0.2-0.1-0.4-0.1-0.6l1.1-6.6l-4.7-4.6c-0.3-0.3-0.3-0.8,0-1.1
			c0.1-0.1,0.3-0.2,0.4-0.2l6.6-1l2.9-6C54.5,0,55-0.1,55.4,0.1c0.2,0.1,0.3,0.2,0.4,0.4l2.9,6l6.6,1C65.7,7.6,66,8,66,8.4
			c0,0.2-0.1,0.3-0.2,0.5L61,13.5l1.1,6.5c0.1,0.4-0.2,0.9-0.7,0.9c-0.2,0-0.4,0-0.5-0.1l-5.9-3L49.1,20.8z"/>
		<path class="st0" d="M71.1,20.8c-0.4,0.2-0.9,0.1-1.1-0.3c-0.1-0.2-0.1-0.4-0.1-0.6l1.1-6.6l-4.7-4.6c-0.3-0.3-0.3-0.8,0-1.1
			c0.1-0.1,0.3-0.2,0.4-0.2l6.6-1l2.9-6C76.5,0,77-0.1,77.4,0.1c0.2,0.1,0.3,0.2,0.4,0.4l2.9,6l6.6,1c0.4,0,0.7,0.4,0.7,0.8
			c0,0.2-0.1,0.3-0.2,0.5L83,13.4l1.1,6.5c0.1,0.4-0.2,0.9-0.7,0.9c-0.2,0-0.4,0-0.5-0.1l-5.9-3L71.1,20.8z"/>
		<path class="st0" d="M93.2,20.8c-0.4,0.2-0.9,0.1-1.1-0.3C92,20.4,91.9,20.2,92,20l1.1-6.6l-4.7-4.6c-0.3-0.3-0.3-0.8,0-1.1
			c0.1-0.1,0.3-0.2,0.4-0.2l6.6-1l2.9-6C98.5,0,99-0.1,99.4,0.1c0.2,0.1,0.3,0.2,0.4,0.4l2.9,6l6.6,1c0.4,0.1,0.7,0.5,0.7,0.9
			c0,0.2-0.1,0.3-0.2,0.5l-4.8,4.6l1.1,6.5c0.1,0.4-0.2,0.9-0.7,0.9c-0.2,0-0.4,0-0.5-0.1l-5.9-3L93.2,20.8z"/>
	</g>
	<g>
		<g class="st2">
			<path class="st3" d="M5,241.9c-0.4,0.2-0.9,0.1-1.1-0.3c-0.1-0.2-0.1-0.4-0.1-0.6l1.1-6.6l-4.7-4.6c-0.3-0.3-0.3-0.8,0-1.1
				c0.1-0.1,0.3-0.2,0.4-0.2l6.6-1l2.9-6c0.2-0.4,0.7-0.6,1.1-0.4c0.2,0.1,0.3,0.2,0.4,0.4l2.9,6l6.6,1c0.4,0.1,0.7,0.5,0.7,0.9
				c0,0.2-0.1,0.3-0.2,0.5l-4.8,4.6L18,241c0.1,0.4-0.2,0.9-0.7,0.9c-0.2,0-0.4,0-0.5-0.1l-5.9-3L5,241.9z"/>
		</g>
		<path class="st1" d="M27.1,241.9c-0.4,0.2-0.9,0.1-1.1-0.3c-0.1-0.2-0.1-0.4-0.1-0.6l1.1-6.6l-4.7-4.6c-0.3-0.3-0.3-0.8,0-1.1
			c0.1-0.1,0.3-0.2,0.4-0.2l6.6-1l2.9-6c0.2-0.4,0.7-0.6,1.1-0.4c0.2,0.1,0.3,0.2,0.4,0.4l2.9,6l6.6,1c0.4,0.1,0.7,0.5,0.7,0.9
			c0,0.2-0.1,0.3-0.2,0.5l-4.8,4.6L40,241c0.1,0.4-0.2,0.9-0.7,0.9c-0.2,0-0.4,0-0.5-0.1l-5.9-3L27.1,241.9z"/>
		<path class="st1" d="M49.1,241.9c-0.4,0.2-0.9,0.1-1.1-0.3c-0.1-0.2-0.1-0.4-0.1-0.6l1.1-6.6l-4.7-4.6c-0.3-0.3-0.3-0.8,0-1.1
			c0.1-0.1,0.3-0.2,0.4-0.2l6.6-1l2.9-6c0.2-0.4,0.7-0.6,1.1-0.4c0.2,0.1,0.3,0.2,0.4,0.4l2.9,6l6.6,1c0.4,0.1,0.7,0.5,0.7,0.9
			c0,0.2-0.1,0.3-0.2,0.5l-4.8,4.6L62,241c0.1,0.4-0.2,0.9-0.7,0.9c-0.2,0-0.4,0-0.5-0.1l-5.9-3L49.1,241.9z"/>
		<path class="st1" d="M71.1,241.9c-0.4,0.2-0.9,0.1-1.1-0.3c-0.1-0.2-0.1-0.4-0.1-0.6l1.1-6.6l-4.7-4.6c-0.3-0.3-0.3-0.8,0-1.1
			c0.1-0.1,0.3-0.2,0.4-0.2l6.6-1l2.9-6c0.2-0.4,0.7-0.6,1.1-0.4c0.2,0.1,0.3,0.2,0.4,0.4l2.9,6l6.6,1c0.4,0.1,0.7,0.5,0.7,0.9
			c0,0.2-0.1,0.3-0.2,0.5l-4.8,4.6L84,241c0.1,0.4-0.2,0.9-0.7,0.9c-0.2,0-0.4,0-0.5-0.1l-5.9-3L71.1,241.9z"/>
		<path class="st1" d="M93.2,241.9c-0.4,0.2-0.9,0.1-1.1-0.3c-0.1-0.2-0.1-0.4-0.1-0.6l1.1-6.6l-4.7-4.6c-0.3-0.3-0.3-0.8,0-1.1
			c0.1-0.1,0.3-0.2,0.4-0.2l6.6-1l2.9-6c0.2-0.4,0.7-0.6,1.1-0.4c0.2,0.1,0.3,0.2,0.4,0.4l2.9,6l6.6,1c0.4,0.1,0.7,0.5,0.7,0.9
			c0,0.2-0.1,0.3-0.2,0.5l-4.8,4.6l1.1,6.5c0.1,0.4-0.2,0.9-0.7,0.9c-0.2,0-0.4,0-0.5-0.1l-5.9-3L93.2,241.9z"/>
	</g>
	<g>
		<g>
			<path class="st0" d="M5,42.9c-0.4,0.2-0.9,0.1-1.1-0.3c-0.1-0.2-0.1-0.4-0.1-0.6l1.1-6.6l-4.7-4.6c-0.3-0.3-0.3-0.8,0-1.1
				c0.1-0.1,0.3-0.2,0.4-0.2l6.6-1l2.9-6c0.2-0.4,0.7-0.6,1.1-0.4c0.2,0.1,0.3,0.2,0.4,0.4l2.9,6l6.6,1c0.4,0.1,0.7,0.5,0.7,0.9
				c0,0.2-0.1,0.3-0.2,0.5l-4.8,4.6l1.1,6.5c0.1,0.4-0.2,0.9-0.7,0.9c-0.2,0-0.4,0-0.5-0.1l-5.9-3L5,42.9z"/>
		</g>
		<path class="st0" d="M27.1,42.9c-0.4,0.2-0.9,0.1-1.1-0.3c-0.1-0.2-0.1-0.4-0.1-0.6l1.1-6.6l-4.7-4.6c-0.3-0.3-0.3-0.8,0-1.1
			c0.1-0.1,0.3-0.2,0.4-0.2l6.6-1l2.9-6c0.2-0.4,0.7-0.6,1.1-0.4c0.2,0.1,0.3,0.2,0.4,0.4l2.9,6l6.6,1c0.4,0.1,0.7,0.5,0.7,0.9
			c0,0.2-0.1,0.3-0.2,0.5l-4.8,4.6L40,42c0.1,0.4-0.2,0.9-0.7,0.9c-0.2,0-0.4,0-0.5-0.1l-5.9-3L27.1,42.9z"/>
		<path class="st0" d="M49.1,42.9c-0.4,0.2-0.9,0.1-1.1-0.3c-0.1-0.2-0.1-0.4-0.1-0.6l1.1-6.6l-4.7-4.6c-0.3-0.3-0.3-0.8,0-1.1
			c0.1-0.1,0.3-0.2,0.4-0.2l6.6-1l2.9-6c0.2-0.4,0.7-0.6,1.1-0.4c0.2,0.1,0.3,0.2,0.4,0.4l2.9,6l6.6,1c0.4,0.1,0.7,0.5,0.7,0.9
			c0,0.2-0.1,0.3-0.2,0.5l-4.8,4.6L62,42c0.1,0.4-0.2,0.9-0.7,0.9c-0.2,0-0.4,0-0.5-0.1l-5.9-3L49.1,42.9z"/>
		<path class="st0" d="M71.1,42.9c-0.4,0.2-0.9,0.1-1.1-0.3c-0.1-0.2-0.1-0.4-0.1-0.6l1.1-6.6l-4.7-4.6c-0.3-0.3-0.3-0.8,0-1.1
			c0.1-0.1,0.3-0.2,0.4-0.2l6.6-1l2.9-6c0.2-0.4,0.7-0.6,1.1-0.4c0.2,0.1,0.3,0.2,0.4,0.4l2.9,6l6.6,1c0.4,0.1,0.7,0.5,0.7,0.9
			c0,0.2-0.1,0.3-0.2,0.5L83,35.5l1.1,6.5c0.1,0.4-0.2,0.9-0.7,0.9c-0.2,0-0.4,0-0.5-0.1l-5.9-3L71.1,42.9z"/>
		<g>
			<path class="st1" d="M93.2,42.9c-0.4,0.2-0.9,0.1-1.1-0.3C92,42.4,92,42.2,92,42l1.1-6.6l-4.7-4.6c-0.3-0.3-0.3-0.8,0-1.1
				c0.1-0.1,0.3-0.2,0.4-0.2l6.6-1l2.9-6c0.2-0.4,0.7-0.6,1.1-0.4c0.2,0.1,0.3,0.2,0.4,0.4l2.9,6l6.6,1c0.4,0.1,0.7,0.5,0.7,0.9
				c0,0.2-0.1,0.3-0.2,0.5l-4.8,4.6l1.1,6.5c0.1,0.4-0.2,0.9-0.7,0.9c-0.2,0-0.4,0-0.5-0.1l-5.9-3L93.2,42.9z"/>
			<path class="st0" d="M99.1,22.1c-0.3,0-0.6,0.2-0.7,0.4l-2.9,6l-6.6,1c-0.2,0-0.3,0.1-0.4,0.2c-0.3,0.3-0.3,0.8,0,1.1l4.7,4.6
				L92,42.1c0,0.2,0,0.4,0.1,0.6c0.2,0.4,0.7,0.5,1.1,0.3l5.9-3V22.1z"/>
		</g>
	</g>
	<g>
		<g>
			<path class="st0" d="M5,87.1c-0.4,0.2-0.9,0.1-1.1-0.3c-0.1-0.2-0.1-0.4-0.1-0.6l1.1-6.6L0.2,75c-0.3-0.3-0.3-0.8,0-1.1
				c0.1-0.1,0.3-0.2,0.4-0.2l6.6-1l2.9-6c0.2-0.4,0.7-0.6,1.1-0.4c0.2,0.1,0.3,0.2,0.4,0.4l2.9,6l6.6,1c0.4,0.1,0.7,0.5,0.7,0.9
				c0,0.2-0.1,0.3-0.2,0.5l-4.8,4.6l1.1,6.5c0.1,0.4-0.2,0.9-0.7,0.9c-0.2,0-0.4,0-0.5-0.1l-5.9-3L5,87.1z"/>
		</g>
		<path class="st0" d="M27.1,87.1c-0.4,0.2-0.9,0.1-1.1-0.3c-0.1-0.2-0.1-0.4-0.1-0.6l1.1-6.6L22.3,75c-0.3-0.3-0.3-0.8,0-1.1
			c0.1-0.1,0.3-0.2,0.4-0.2l6.6-1l2.9-6c0.2-0.4,0.7-0.6,1.1-0.4c0.2,0.1,0.3,0.2,0.4,0.4l2.9,6l6.6,1c0.4,0.1,0.7,0.5,0.7,0.9
			c0,0.2-0.1,0.3-0.2,0.5l-4.8,4.6l1.1,6.5c0.1,0.4-0.2,0.9-0.7,0.9c-0.2,0-0.4,0-0.5-0.1l-5.9-3L27.1,87.1z"/>
		<path class="st0" d="M49.1,87.1c-0.4,0.2-0.9,0.1-1.1-0.3c-0.1-0.2-0.1-0.4-0.1-0.6l1.1-6.6L44.3,75c-0.3-0.3-0.3-0.8,0-1.1
			c0.1-0.1,0.3-0.2,0.4-0.2l6.6-1l2.9-6c0.2-0.4,0.7-0.6,1.1-0.4c0.2,0.1,0.3,0.2,0.4,0.4l2.9,6l6.6,1c0.4,0.1,0.7,0.5,0.7,0.9
			c0,0.2-0.1,0.3-0.2,0.5l-4.8,4.6l1.1,6.5c0.1,0.4-0.2,0.9-0.7,0.9c-0.2,0-0.4,0-0.5-0.1l-5.9-3L49.1,87.1z"/>
		<path class="st1" d="M93.2,87.1c-0.4,0.2-0.9,0.1-1.1-0.3C92,86.6,92,86.4,92,86.2l1.1-6.6L88.4,75c-0.3-0.3-0.3-0.8,0-1.1
			c0.1-0.1,0.3-0.2,0.4-0.2l6.6-1l2.9-6c0.2-0.4,0.7-0.6,1.1-0.4c0.2,0.1,0.3,0.2,0.4,0.4l2.9,6l6.6,1c0.4,0.1,0.7,0.5,0.7,0.9
			c0,0.2-0.1,0.3-0.2,0.5l-4.8,4.6l1.1,6.5c0.1,0.4-0.2,0.9-0.7,0.9c-0.2,0-0.4,0-0.5-0.1L99,84L93.2,87.1z"/>
		<g>
			<path class="st1" d="M71.1,87.1c-0.4,0.2-0.9,0.1-1.1-0.3c-0.1-0.2-0.1-0.4-0.1-0.6l1.1-6.6L66.3,75c-0.3-0.3-0.3-0.8,0-1.1
				c0.1-0.1,0.3-0.2,0.4-0.2l6.6-1l2.9-6c0.2-0.4,0.7-0.6,1.1-0.4c0.2,0.1,0.3,0.2,0.4,0.4l2.9,6l6.6,1c0.4,0.1,0.7,0.5,0.7,0.9
				c0,0.2-0.1,0.3-0.2,0.5L83,79.8l1.1,6.5c0.1,0.4-0.2,0.9-0.7,0.9c-0.2,0-0.4,0-0.5-0.1l-5.9-3L71.1,87.1z"/>
			<path class="st0" d="M77,66.3c-0.3,0-0.6,0.2-0.7,0.4l-2.9,6l-6.6,1c-0.2,0-0.3,0.1-0.4,0.2c-0.3,0.3-0.3,0.8,0,1.1l4.7,4.6
				L70,86.2c0,0.2,0,0.4,0.1,0.6c0.2,0.4,0.7,0.5,1.1,0.3l5.9-3L77,66.3L77,66.3z"/>
		</g>
	</g>
	<g>
		<g>
			<path class="st0" d="M5,131.4c-0.4,0.2-0.9,0.1-1.1-0.3c-0.1-0.2-0.1-0.4-0.1-0.6l1.1-6.6l-4.7-4.6c-0.3-0.3-0.3-0.8,0-1.1
				c0.1-0.1,0.3-0.2,0.4-0.2l6.6-1l2.9-6c0.2-0.4,0.7-0.6,1.1-0.4c0.2,0.1,0.3,0.2,0.4,0.4l2.9,6l6.6,1c0.4,0.1,0.7,0.5,0.7,0.9
				c0,0.2-0.1,0.3-0.2,0.5l-4.8,4.6l1.1,6.5c0.1,0.4-0.2,0.9-0.7,0.9c-0.2,0-0.4,0-0.5-0.1l-5.9-3L5,131.4z"/>
		</g>
		<path class="st0" d="M27.1,131.4c-0.4,0.2-0.9,0.1-1.1-0.3c-0.1-0.2-0.1-0.4-0.1-0.6l1.1-6.6l-4.7-4.6c-0.3-0.3-0.3-0.8,0-1.1
			c0.1-0.1,0.3-0.2,0.4-0.2l6.6-1l2.9-6c0.2-0.4,0.7-0.6,1.1-0.4c0.2,0.1,0.3,0.2,0.4,0.4l2.9,6l6.6,1c0.4,0.1,0.7,0.5,0.7,0.9
			c0,0.2-0.1,0.3-0.2,0.5l-4.8,4.6l1.1,6.5c0.1,0.4-0.2,0.9-0.7,0.9c-0.2,0-0.4,0-0.5-0.1l-5.9-3L27.1,131.4z"/>
		<path class="st1" d="M71.1,131.4c-0.4,0.2-0.9,0.1-1.1-0.3c-0.1-0.2-0.1-0.4-0.1-0.6l1.1-6.6l-4.7-4.6c-0.3-0.3-0.3-0.8,0-1.1
			c0.1-0.1,0.3-0.2,0.4-0.2l6.6-1l2.9-6c0.2-0.4,0.7-0.6,1.1-0.4c0.2,0.1,0.3,0.2,0.4,0.4l2.9,6l6.6,1c0.4,0.1,0.7,0.5,0.7,0.9
			c0,0.2-0.1,0.3-0.2,0.5L83,124l1.1,6.5c0.1,0.4-0.2,0.9-0.7,0.9c-0.2,0-0.4,0-0.5-0.1l-5.9-3L71.1,131.4z"/>
		<path class="st1" d="M93.2,131.4c-0.4,0.2-0.9,0.1-1.1-0.3c-0.1-0.2-0.1-0.4-0.1-0.6l1.1-6.6l-4.7-4.6c-0.3-0.3-0.3-0.8,0-1.1
			c0.1-0.1,0.3-0.2,0.4-0.2l6.6-1l2.9-6c0.2-0.4,0.7-0.6,1.1-0.4c0.2,0.1,0.3,0.2,0.4,0.4l2.9,6l6.6,1c0.4,0.1,0.7,0.5,0.7,0.9
			c0,0.2-0.1,0.3-0.2,0.5L105,124l1.1,6.5c0.1,0.4-0.2,0.9-0.7,0.9c-0.2,0-0.4,0-0.5-0.1l-5.9-3L93.2,131.4z"/>
		<g>
			<path class="st1" d="M49.1,131.4c-0.4,0.2-0.9,0.1-1.1-0.3c-0.1-0.2-0.1-0.4-0.1-0.6l1.1-6.6l-4.7-4.6c-0.3-0.3-0.3-0.8,0-1.1
				c0.1-0.1,0.3-0.2,0.4-0.2l6.6-1l2.9-6c0.2-0.4,0.7-0.6,1.1-0.4c0.2,0.1,0.3,0.2,0.4,0.4l2.9,6l6.6,1c0.4,0.1,0.7,0.5,0.7,0.9
				c0,0.2-0.1,0.3-0.2,0.5l-4.8,4.6l1.1,6.5c0.1,0.4-0.2,0.9-0.7,0.9c-0.2,0-0.4,0-0.5-0.1l-5.9-3L49.1,131.4z"/>
			<path class="st0" d="M55,110.5c-0.3,0-0.6,0.2-0.7,0.4l-2.9,6l-6.6,1c-0.2,0-0.3,0.1-0.4,0.2c-0.3,0.3-0.3,0.8,0,1.1l4.7,4.6
				l-1.1,6.6c0,0.2,0,0.4,0.1,0.6c0.2,0.4,0.7,0.5,1.1,0.3l5.9-3L55,110.5L55,110.5z"/>
		</g>
	</g>
	<g>
		<g>
			<path class="st0" d="M5,175.6c-0.4,0.2-0.9,0.1-1.1-0.3c-0.1-0.2-0.1-0.4-0.1-0.6l1.1-6.6l-4.7-4.6c-0.3-0.3-0.3-0.8,0-1.1
				c0.1-0.1,0.3-0.2,0.4-0.2l6.6-1l2.9-6c0.2-0.4,0.7-0.6,1.1-0.4c0.2,0.1,0.3,0.2,0.4,0.4l2.9,6l6.6,1c0.4,0.1,0.7,0.5,0.7,0.9
				c0,0.2-0.1,0.3-0.2,0.5l-4.8,4.6l1.1,6.5c0.1,0.4-0.2,0.9-0.7,0.9c-0.2,0-0.4,0-0.5-0.1l-5.9-3L5,175.6z"/>
		</g>
		<path class="st1" d="M49.1,175.6c-0.4,0.2-0.9,0.1-1.1-0.3c-0.1-0.2-0.1-0.4-0.1-0.6l1.1-6.6l-4.7-4.6c-0.3-0.3-0.3-0.8,0-1.1
			c0.1-0.1,0.3-0.2,0.4-0.2l6.6-1l2.9-6c0.2-0.4,0.7-0.6,1.1-0.4c0.2,0.1,0.3,0.2,0.4,0.4l2.9,6l6.6,1c0.4,0.1,0.7,0.5,0.7,0.9
			c0,0.2-0.1,0.3-0.2,0.5l-4.8,4.6l1.1,6.5c0.1,0.4-0.2,0.9-0.7,0.9c-0.2,0-0.4,0-0.5-0.1l-5.9-3L49.1,175.6z"/>
		<path class="st1" d="M71.1,175.6c-0.4,0.2-0.9,0.1-1.1-0.3c-0.1-0.2-0.1-0.4-0.1-0.6l1.1-6.6l-4.7-4.6c-0.3-0.3-0.3-0.8,0-1.1
			c0.1-0.1,0.3-0.2,0.4-0.2l6.6-1l2.9-6c0.2-0.4,0.7-0.6,1.1-0.4c0.2,0.1,0.3,0.2,0.4,0.4l2.9,6l6.6,1c0.4,0.1,0.7,0.5,0.7,0.9
			c0,0.2-0.1,0.3-0.2,0.5l-4.8,4.6l1.1,6.5c0.1,0.4-0.2,0.9-0.7,0.9c-0.2,0-0.4,0-0.5-0.1l-5.9-3L71.1,175.6z"/>
		<path class="st1" d="M93.2,175.6c-0.4,0.2-0.9,0.1-1.1-0.3c-0.1-0.2-0.1-0.4-0.1-0.6l1.1-6.6l-4.7-4.6c-0.3-0.3-0.3-0.8,0-1.1
			c0.1-0.1,0.3-0.2,0.4-0.2l6.6-1l2.9-6c0.2-0.4,0.7-0.6,1.1-0.4c0.2,0.1,0.3,0.2,0.4,0.4l2.9,6l6.6,1c0.4,0.1,0.7,0.5,0.7,0.9
			c0,0.2-0.1,0.3-0.2,0.5l-4.8,4.6l1.1,6.5c0.1,0.4-0.2,0.9-0.7,0.9c-0.2,0-0.4,0-0.5-0.1l-5.9-3L93.2,175.6z"/>
		<g>
			<path class="st1" d="M27.1,175.6c-0.4,0.2-0.9,0.1-1.1-0.3c-0.1-0.2-0.1-0.4-0.1-0.6l1.1-6.6l-4.7-4.6c-0.3-0.3-0.3-0.8,0-1.1
				c0.1-0.1,0.3-0.2,0.4-0.2l6.6-1l2.9-6c0.2-0.4,0.7-0.6,1.1-0.4c0.2,0.1,0.3,0.2,0.4,0.4l2.9,6l6.6,1c0.4,0.1,0.7,0.5,0.7,0.9
				c0,0.2-0.1,0.3-0.2,0.5l-4.8,4.6l1.1,6.5c0.1,0.4-0.2,0.9-0.7,0.9c-0.2,0-0.4,0-0.5-0.1l-5.9-3L27.1,175.6z"/>
			<path class="st0" d="M33,154.8c-0.3,0-0.6,0.2-0.7,0.4l-2.9,6l-6.6,1c-0.2,0-0.3,0.1-0.4,0.2c-0.3,0.3-0.3,0.8,0,1.1l4.7,4.6
				l-1.1,6.6c0,0.2,0,0.4,0.1,0.6c0.2,0.4,0.7,0.5,1.1,0.3l5.9-3L33,154.8L33,154.8z"/>
		</g>
	</g>
	<g>
		<path class="st1" d="M27.1,219.8c-0.4,0.2-0.9,0.1-1.1-0.3c-0.1-0.2-0.1-0.4-0.1-0.6l1.1-6.6l-4.7-4.6c-0.3-0.3-0.3-0.8,0-1.1
			c0.1-0.1,0.3-0.2,0.4-0.2l6.6-1l2.9-6c0.2-0.4,0.7-0.6,1.1-0.4c0.2,0.1,0.3,0.2,0.4,0.4l2.9,6l6.6,1c0.4,0.1,0.7,0.5,0.7,0.9
			c0,0.2-0.1,0.3-0.2,0.5l-4.8,4.6l1.1,6.5c0.1,0.4-0.2,0.9-0.7,0.9c-0.2,0-0.4,0-0.5-0.1l-5.9-3L27.1,219.8z"/>
		<path class="st1" d="M49.1,219.8c-0.4,0.2-0.9,0.1-1.1-0.3c-0.1-0.2-0.1-0.4-0.1-0.6l1.1-6.6l-4.7-4.6c-0.3-0.3-0.3-0.8,0-1.1
			c0.1-0.1,0.3-0.2,0.4-0.2l6.6-1l2.9-6c0.2-0.4,0.7-0.6,1.1-0.4c0.2,0.1,0.3,0.2,0.4,0.4l2.9,6l6.6,1c0.4,0.1,0.7,0.5,0.7,0.9
			c0,0.2-0.1,0.3-0.2,0.5l-4.8,4.6l1.1,6.5c0.1,0.4-0.2,0.9-0.7,0.9c-0.2,0-0.4,0-0.5-0.1l-5.9-3L49.1,219.8z"/>
		<path class="st1" d="M71.1,219.8c-0.4,0.2-0.9,0.1-1.1-0.3c-0.1-0.2-0.1-0.4-0.1-0.6l1.1-6.6l-4.7-4.6c-0.3-0.3-0.3-0.8,0-1.1
			c0.1-0.1,0.3-0.2,0.4-0.2l6.6-1l2.9-6c0.2-0.4,0.7-0.6,1.1-0.4c0.2,0.1,0.3,0.2,0.4,0.4l2.9,6l6.6,1c0.4,0.1,0.7,0.5,0.7,0.9
			c0,0.2-0.1,0.3-0.2,0.5l-4.8,4.6l1.1,6.5c0.1,0.4-0.2,0.9-0.7,0.9c-0.2,0-0.4,0-0.5-0.1l-5.9-3L71.1,219.8z"/>
		<path class="st1" d="M93.2,219.8c-0.4,0.2-0.9,0.1-1.1-0.3c-0.1-0.2-0.1-0.4-0.1-0.6l1.1-6.6l-4.7-4.6c-0.3-0.3-0.3-0.8,0-1.1
			c0.1-0.1,0.3-0.2,0.4-0.2l6.6-1l2.9-6c0.2-0.4,0.7-0.6,1.1-0.4c0.2,0.1,0.3,0.2,0.4,0.4l2.9,6l6.6,1c0.4,0.1,0.7,0.5,0.7,0.9
			c0,0.2-0.1,0.3-0.2,0.5l-4.8,4.6l1.1,6.5c0.1,0.4-0.2,0.9-0.7,0.9c-0.2,0-0.4,0-0.5-0.1l-5.9-3L93.2,219.8z"/>
		<g>
			<g class="st2">
				<path class="st3" d="M5,219.8c-0.4,0.2-0.9,0.1-1.1-0.3c-0.1-0.2-0.1-0.4-0.1-0.6l1.1-6.6l-4.7-4.6c-0.3-0.3-0.3-0.8,0-1.1
					c0.1-0.1,0.3-0.2,0.4-0.2l6.6-1l2.9-6c0.2-0.4,0.7-0.6,1.1-0.4c0.2,0.1,0.3,0.2,0.4,0.4l2.9,6l6.6,1c0.4,0.1,0.7,0.5,0.7,0.9
					c0,0.2-0.1,0.3-0.2,0.5l-4.8,4.6l1.1,6.5c0.1,0.4-0.2,0.9-0.7,0.9c-0.2,0-0.4,0-0.5-0.1l-5.9-3L5,219.8z"/>
			</g>
			<path class="st0" d="M10.9,199c-0.3,0-0.6,0.2-0.7,0.4l-2.9,6l-6.6,1c-0.2,0-0.3,0.1-0.4,0.2c-0.3,0.3-0.3,0.8,0,1.1l4.7,4.6
				l-1.1,6.6c0,0.2,0,0.4,0.1,0.6c0.2,0.4,0.7,0.5,1.1,0.3l5.9-3V199H10.9z"/>
		</g>
	</g>
</g>
</svg>
