<?xml version="1.0" encoding="utf-8"?>
<!-- Generator: Adobe Illustrator 23.0.2, SVG Export Plug-In . SVG Version: 6.00 Build 0)  -->
<svg version="1.1" id="图层_1" xmlns="http://www.w3.org/2000/svg" xmlns:xlink="http://www.w3.org/1999/xlink" x="0px" y="0px"
	 viewBox="0 0 566.9 1133.9" style="enable-background:new 0 0 566.9 1133.9;" xml:space="preserve">
<style type="text/css">
	.st0{clip-path:url(#SVGID_2_);}
	.st1{fill:#FFFFFF;}
</style>
<g>
	<defs>
		<rect id="SVGID_1_" width="566.9" height="1133.9"/>
	</defs>
	<clipPath id="SVGID_2_">
		<use xlink:href="#SVGID_1_"  style="overflow:visible;"/>
	</clipPath>
	<g class="st0">
		<g>
			<path class="st1" d="M266.5,151.3h33.2v33.2h-33.2V151.3z M266.5,382.5h33.2v33.2h-33.2V382.5z M415.7,267.3v33.2h-33.2v-33.2
				H415.7z M184.4,267.3v33.2h-33.2v-33.2H184.4z M364.2,178l23.1,23.1l-23.1,23.1L341.1,201L364.2,178z M202.6,341.2l23.1,23.1
				l-23.1,23.1l-23.1-23.1L202.6,341.2z M177.9,202.7l23.1-23.1l23.1,23.1l-21.4,23.1L177.9,202.7z M341.1,364.3l23.1-23.1
				l23.1,23.1l-23.1,23.1L341.1,364.3z M283.4,365.9c-46.2,0-82.4-36.3-82.4-82.4s36.3-82.4,82.4-82.4c46.2,0,82.4,36.3,82.4,82.4
				S329.6,365.9,283.4,365.9L283.4,365.9z M283.4,333"/>
		</g>
		<g>
			<g>
				<path class="st1" d="M340.6,790.3c16.2,16,24.6,36.8,25.4,57.9c-22.6-0.5-45.4,8-62.6,25.4c-17.2,17.4-25.4,40.3-24.6,62.9
					c-21.1-0.4-42-8.6-58.2-24.6c-33.6-33.2-33.9-87.2-0.8-120.8C253,757.5,307.1,757.2,340.6,790.3z"/>
			</g>
		</g>
	</g>
</g>
</svg>
