<?xml version="1.0" encoding="utf-8"?>
<!-- Generator: Adobe Illustrator 23.0.2, SVG Export Plug-In . SVG Version: 6.00 Build 0)  -->
<svg version="1.1" id="图层_1" xmlns="http://www.w3.org/2000/svg" xmlns:xlink="http://www.w3.org/1999/xlink" x="0px" y="0px"
	 viewBox="0 0 22 22" style="enable-background:new 0 0 22 22;" xml:space="preserve">
<style type="text/css">
	.st0{opacity:0.2;fill:#999899;}
</style>
<path class="st0" d="M5.2,21c-0.4,0.2-0.9,0.1-1.1-0.3C4,20.6,3.9,20.4,4,20.2l1.1-6.6L0.4,9C0,8.7,0.1,8.1,0.4,7.8
	c0.1-0.1,0.3-0.2,0.4-0.2l6.6-1l2.9-6c0.2-0.4,0.7-0.6,1.1-0.4c0.2,0.1,0.3,0.2,0.4,0.4l2.9,6l6.6,1c0.4,0.1,0.7,0.5,0.7,0.9
	c0,0.2-0.1,0.3-0.2,0.5L17,13.7l1.1,6.5c0.1,0.4-0.2,0.9-0.7,0.9c-0.2,0-0.4,0-0.5-0.1l-5.9-3L5.2,21z"/>
</svg>
