<?xml version="1.0" encoding="utf-8"?>
<!-- Generator: Adobe Illustrator 23.0.2, SVG Export Plug-In . SVG Version: 6.00 Build 0)  -->
<svg version="1.1" id="图层_1" xmlns="http://www.w3.org/2000/svg" xmlns:xlink="http://www.w3.org/1999/xlink" x="0px" y="0px"
	 viewBox="0 0 22 22" style="enable-background:new 0 0 22 22;" xml:space="preserve">
<style type="text/css">
	.st0{fill:#5CEB8E;}
</style>
<path class="st0" d="M5.1,21c-0.4,0.2-0.9,0.1-1.1-0.3c-0.1-0.2-0.1-0.4-0.1-0.6L5,13.6L0.3,9C0,8.7,0,8.1,0.4,7.8
	c0.1-0.1,0.3-0.2,0.4-0.2l6.6-1l2.9-6C10.5,0.2,11,0,11.4,0.2c0.2,0.1,0.3,0.2,0.4,0.4l2.9,6l6.6,1c0.4,0.1,0.7,0.5,0.7,1
	c0,0.2-0.1,0.3-0.2,0.5L17,13.7l1.1,6.5c0.1,0.4-0.2,0.9-0.7,0.9c-0.2,0-0.4,0-0.5-0.1L11,18L5.1,21z"/>
</svg>
