<?xml version="1.0" encoding="utf-8"?>
<!-- Generator: Adobe Illustrator 23.0.2, SVG Export Plug-In . SVG Version: 6.00 Build 0)  -->
<svg version="1.1" id="图层_1" xmlns="http://www.w3.org/2000/svg" xmlns:xlink="http://www.w3.org/1999/xlink" x="0px" y="0px"
	 viewBox="0 0 595.3 841.9" style="enable-background:new 0 0 595.3 841.9;" xml:space="preserve">
<style type="text/css">
	.st0{fill:#FFFFFF;}
	.st1{fill:#75C183;}
</style>
<g>
	<g>
		<g>
			<path class="st0" d="M352.8,205.7c22.8-1.6,44.2,8.3,62.9,20.5c17,11.1,33,24.4,46.6,39.6c27.1,30.3,40.7,69.1,38.9,109.7
				c-1.8,39.6-17.9,77.8-44.4,107.2c-25.9,28.7-60.2,49.3-97.2,60.3c-42.8,12.7-88.6,12.6-132,3.1c-41.9-9.2-82.6-26.2-117.4-51.4
				c-33-23.9-60.2-56.7-73.3-95.6c-12.8-37.8-11.5-78.8,7.1-114.5c17.2-33.1,45.8-59.4,79.1-75.9c39.4-19.5,84.6-24.9,128.1-21.7
				c11,0.8,22,2.1,32.8,4c4.6,0.8,9.4-1.2,10.7-6.1c1.2-4.2-1.4-9.9-6.1-10.7c-47.2-8.7-96.8-8.4-142.8,6.3
				c-40.8,13.1-76.9,37.6-102.6,72C17.4,287,6.3,329.5,12.3,372.2c6.3,44.7,30.1,85.6,62.8,116.2c32.8,30.8,73.6,52.3,116.2,66.1
				c47,15.3,97.6,20.4,146.5,11.8c83.9-14.8,161.2-76,177.5-162.3c8.1-43,1.3-88.2-23.1-124.9c-12.3-18.5-28-34.2-45.7-47.5
				c-17.6-13.2-38.6-24.2-60.1-29.2c-10.9-2.5-22.3-3.3-33.4-2.2C349.3,200.6,349.2,206,352.8,205.7L352.8,205.7z"/>
		</g>
	</g>
	<g>
		<g>
			<path class="st0" d="M407,36.2c-3,8.7-8.8,16.8-13.7,24.6c-7,11.3-14.5,22.2-22.4,32.8c-16.9,22.6-36.3,44-58.2,61.7
				c-4.6,3.7-9.8,7.5-15.1,10.7c-2.6,1.6-5.2,3-7.9,4.3c-0.5,0.2-1,0.5-1.5,0.7c-1.7,0.8,1-0.4-0.9,0.4c-1.2,0.5-2.4,0.9-3.6,1.3
				c-10.9,3.4-6.2,20.6,4.7,17.2c11.1-3.5,21.2-9.8,30.4-16.8c11.7-8.8,22.4-18.7,32.6-29.3c20.5-21.3,40.7-45.2,54.4-71.5
				c5.7-10.9,10.1-22.3,10.9-34.7C416.9,31.7,408.7,31.3,407,36.2L407,36.2z"/>
		</g>
	</g>
	<g>
		<path class="st0" d="M127.3,234.3c-0.5,0-1-0.2-1.4-0.5c-0.4-0.3-0.6-0.8-0.7-1.4v-0.6c-0.1-0.6,0.1-1.1,0.5-1.5
			c0.4-0.4,0.8-0.6,1.4-0.6l18-0.8c0.5,0,1-0.3,1.4-0.7c0.4-0.4,0.5-0.9,0.5-1.4v-0.3c0-0.5,0.2-1,0.6-1.4c0.4-0.4,0.9-0.6,1.4-0.6
			l4.6-0.1c0.5,0,1,0.2,1.4,0.6c0.4,0.4,0.6,0.9,0.6,1.5c0,0.5,0.2,1,0.6,1.3c0.4,0.3,0.9,0.5,1.4,0.5l16.2-0.8c0.5,0,1,0.2,1.5,0.5
			c0.4,0.3,0.7,0.8,0.7,1.4v0.6c0,0.5-0.2,1-0.5,1.4c-0.3,0.4-0.8,0.6-1.4,0.6l-16.3,0.9c-0.5,0-1,0.2-1.4,0.6
			c-0.4,0.4-0.6,0.9-0.5,1.5v0.1c0,0.5,0.2,1,0.6,1.4c0.4,0.4,0.9,0.5,1.4,0.5l11.3-0.5c0.5,0,0.9,0.1,1.3,0.4
			c0.4,0.3,0.6,0.8,0.7,1.3v0.7c0,0.5-0.1,1-0.5,1.4c-0.4,0.4-0.8,0.6-1.3,0.6l-11.4,0.6c-0.5,0-0.9,0.1-1.3,0.4
			c-0.4,0.3-0.6,0.6-0.5,0.9c0,0.3,0.2,0.6,0.6,0.9c0.4,0.2,0.8,0.4,1.4,0.4l7.3-0.2c0.5,0,1,0.1,1.3,0.5c0.3,0.4,0.5,0.9,0.4,1.5
			l-0.7,7.5c-0.1,0.5-0.3,1-0.7,1.4c-0.4,0.4-0.9,0.6-1.5,0.6l-23,0.4c-0.6,0-1.1-0.2-1.4-0.6c-0.3-0.4-0.5-0.8-0.5-1.3l0.1-7.5
			c0-0.6,0.2-1.1,0.6-1.5c0.4-0.4,0.9-0.6,1.4-0.6l4.1-0.1c0.5,0,1-0.1,1.4-0.3c0.4-0.2,0.6-0.5,0.6-0.8c0-0.3-0.2-0.5-0.6-0.7
			c-0.4-0.2-0.9-0.3-1.5-0.2l-11.9,0.5c-0.5,0-1-0.1-1.4-0.4c-0.4-0.3-0.6-0.8-0.6-1.4l-0.1-0.7c0-0.6,0.2-1.1,0.5-1.5
			c0.3-0.4,0.8-0.6,1.4-0.6l12.1-0.6c0.6,0,1.1-0.3,1.5-0.6s0.6-0.8,0.6-1.4l-0.1-0.3c0-0.5-0.2-1-0.6-1.3c-0.4-0.3-0.8-0.5-1.4-0.5
			L127.3,234.3z M180.2,264.8c0,0.5-0.2,1-0.6,1.4c-0.4,0.4-0.8,0.6-1.3,0.6l-50.2,2.2c-0.5,0.1-1-0.1-1.4-0.5
			c-0.4-0.4-0.6-0.8-0.6-1.4v-0.6c0-0.6,0.2-1.1,0.5-1.5c0.3-0.4,0.8-0.6,1.4-0.6l11-0.5c0.5,0,0.9-0.1,1-0.4c0.1-0.3,0-0.6-0.4-1
			l-0.6-0.6c-0.4-0.4-0.6-0.9-0.6-1.4c0-0.5,0.2-1,0.6-1.4l1.3-1.5c0.4-0.4,0.9-0.6,1.4-0.6s1,0.2,1.4,0.6l2.8,2.8
			c0.4,0.4,0.6,0.8,0.7,1.2c0.1,0.4,0,0.8-0.2,1.1c-0.2,0.2-0.3,0.5,0,0.6c0.2,0.2,0.6,0.3,1.2,0.3l6.9-0.4c0.6,0,1-0.1,1.3-0.2
			c0.3-0.1,0.4-0.2,0.4-0.3c-0.1-0.1,0-0.3,0.3-0.6c0.2-0.3,0.6-0.6,1.1-1l6.3-4.3c0.4-0.3,0.9-0.4,1.4-0.3c0.5,0.1,0.9,0.4,1.3,0.9
			l1.1,1.6c0.3,0.4,0.4,0.9,0.3,1.4c-0.1,0.5-0.3,0.9-0.7,1.1c-0.4,0.3-0.6,0.5-0.5,0.7c0.1,0.2,0.4,0.3,1,0.3l10.3-0.5
			c0.6,0,1.1,0.2,1.5,0.6c0.4,0.4,0.6,0.8,0.6,1.3L180.2,264.8z M170.2,268.8c0.5,0,0.9,0.2,1.1,0.5c0.2,0.3,0.2,0.8,0.1,1.3
			l-5,10.5c-0.2,0.4-0.6,0.9-1.2,1.3c-0.5,0.4-1.1,0.6-1.6,0.6l-24,1c-0.5,0-1-0.1-1.4-0.4c-0.4-0.3-0.6-0.8-0.7-1.4l-0.7-10.7
			c0-0.5,0.1-1,0.4-1.4c0.3-0.4,0.8-0.6,1.4-0.6L170.2,268.8z M163.5,275.6c0.2-0.4,0.3-0.8,0.1-1.2c-0.2-0.3-0.6-0.5-1.2-0.5
			l-18.5,0.4c-0.6,0-1.1,0.2-1.4,0.6c-0.3,0.4-0.5,0.9-0.4,1.5l0.1,0.8c0,0.5,0.2,1,0.6,1.3c0.4,0.3,0.9,0.5,1.4,0.4l16.3-0.6
			c0.5,0,1-0.3,1.6-0.6c0.5-0.4,0.9-0.8,1.1-1.2L163.5,275.6z M145.2,248.3c-0.6,0.1-1.1,0.2-1.5,0.6c-0.4,0.3-0.6,0.7-0.6,1.2
			c0,0.5,0.2,0.9,0.6,1.2c0.4,0.3,0.9,0.5,1.5,0.5l15.4-0.3c0.5,0,1-0.2,1.4-0.5c0.4-0.3,0.6-0.8,0.7-1.3c0.1-0.5,0-0.9-0.4-1.3
			c-0.3-0.3-0.8-0.5-1.4-0.5L145.2,248.3z"/>
		<path class="st0" d="M200.3,276.9c-0.4-0.2-0.7-0.5-0.9-0.9c-0.1-0.4-0.1-0.8,0-1.2l9-20.5c0.2-0.4,0.2-0.9,0.1-1.4
			c-0.1-0.5-0.3-1-0.6-1.3l-4.6-4.6c-0.2-0.3-0.4-0.7-0.4-1.2s0.1-0.8,0.4-1.1l1.2-1.1c0.3-0.3,0.7-0.5,1.2-0.5
			c0.5,0,0.9,0.2,1.2,0.5l3.1,3.2c0.3,0.3,0.7,0.5,1,0.4c0.3-0.1,0.6-0.3,0.7-0.8l3.8-8.4c0.1-0.5,0.1-0.9,0-1.2
			c-0.2-0.3-0.5-0.4-1-0.4l-13-0.1c-0.4,0-0.8-0.2-1.1-0.5c-0.3-0.3-0.4-0.7-0.4-1.2V233c0-0.5,0.2-0.9,0.5-1.2
			c0.3-0.3,0.7-0.5,1.1-0.5l20.5,0.3c0.4,0,0.8,0.1,0.9,0.4c0.2,0.3,0.2,0.6,0,1l-7.5,17.1c-0.2,0.4-0.2,0.9-0.1,1.5
			c0.1,0.5,0.3,0.9,0.7,1.2l7,7.1c0.3,0.3,0.5,0.7,0.5,1.2s-0.2,0.8-0.5,1.2l-1.1,1.1c-0.3,0.3-0.7,0.5-1.2,0.5
			c-0.4,0-0.8-0.2-1.1-0.5l-5.7-5.7c-0.3-0.3-0.6-0.5-1-0.4c-0.4,0.1-0.6,0.3-0.8,0.7l-8.4,18.7c-0.1,0.5-0.4,0.8-0.9,0.9
			c-0.4,0.1-0.8,0.1-1.2,0L200.3,276.9z M232.6,247c0.2-0.4,0.5-0.8,0.9-1c0.4-0.2,0.8-0.2,1.3,0l3.1,1c0.4,0.1,0.7,0.4,0.9,0.9
			c0.2,0.4,0.2,0.8,0,1.2l-10.4,30.4c-0.1,0.4-0.3,0.8-0.7,1c-0.4,0.2-0.8,0.2-1.3,0.1l-3.1-1.1c-0.4-0.1-0.7-0.3-0.9-0.7
			c-0.2-0.4-0.2-0.8-0.1-1.2L232.6,247z M229.7,243.3c-0.1,0.4-0.3,0.7-0.7,0.9c-0.4,0.2-0.8,0.2-1.3,0.1l-1.5-0.5
			c-0.4-0.1-0.8-0.4-1-0.9c-0.2-0.4-0.2-0.8-0.1-1.2l5.4-14.9c0.1-0.4,0.4-0.8,0.8-0.9c0.4-0.2,0.8-0.2,1.2-0.1l1.6,0.6
			c0.4,0.2,0.8,0.5,0.9,0.9c0.2,0.4,0.2,0.8,0.1,1.2L229.7,243.3z M233.6,233.7c0.1-0.4,0.3-0.8,0.7-1c0.4-0.2,0.8-0.3,1.3-0.2
			l18.9,3.8c0.4,0.1,0.7,0.3,0.8,0.6c0.1,0.3,0.1,0.7-0.1,1.1l-8.4,12.8c-0.2,0.4-0.5,0.6-1,0.7c-0.5,0.1-0.9,0-1.3-0.2l-2.2-1.5
			c-0.4-0.2-0.6-0.5-0.7-0.9c-0.1-0.4,0-0.8,0.3-1.2l3.6-5.6c0.3-0.3,0.4-0.7,0.2-1c-0.1-0.3-0.4-0.6-0.9-0.7l-10.4-2.1
			c-0.5,0-0.9-0.3-1.1-0.7c-0.2-0.4-0.3-0.8-0.3-1.2L233.6,233.7z M247.7,282.8c-0.3,0.1-0.7,0.2-1.2,0.1c-0.4-0.1-0.8-0.3-1-0.7
			l-8.4-14.9c-0.2-0.3-0.2-0.7-0.1-1.2c0.1-0.4,0.3-0.8,0.7-1l1.5-0.8c0.4-0.2,0.8-0.3,1.2-0.1c0.4,0.1,0.8,0.4,1,0.8l8.3,14.8
			c0.2,0.4,0.3,0.8,0.2,1.2c-0.1,0.4-0.4,0.8-0.8,1L247.7,282.8z"/>
		<path class="st0" d="M283.2,264.8c0.3-0.3,0.6-0.8,0.8-1.3c0.2-0.5,0.3-1,0.3-1.5v-8.3c0-0.4-0.2-0.8-0.4-1
			c-0.3-0.2-0.7-0.3-1.2-0.3l-2.8,0.3c-0.5,0.1-0.9,0-1.2-0.3c-0.3-0.3-0.5-0.7-0.6-1.1l-0.4-3.7c-0.1-0.4,0-0.8,0.3-1.2
			c0.3-0.3,0.6-0.5,1.1-0.6l10.7-1.3c0.4,0,0.8,0.1,1.1,0.3c0.3,0.2,0.4,0.6,0.4,1.2v19c0,0.4-0.1,0.9-0.3,1.5
			c-0.2,0.5-0.4,0.9-0.7,1.2l-3,3c-0.2,0.3-0.3,0.6-0.3,1c0,0.4,0.3,0.7,0.7,0.9l4.6,2.2c0.4,0.1,0.9,0.3,1.5,0.4
			c0.6,0.1,1.1,0.2,1.6,0.3l29.2,0.7c0.5,0,0.9,0.2,1.2,0.5c0.3,0.3,0.4,0.7,0.4,1.2l-0.1,3.7c-0.1,0.4-0.2,0.8-0.6,1.1
			c-0.3,0.3-0.7,0.4-1.2,0.4l-30.6-0.7c-0.5,0-1-0.1-1.6-0.2c-0.6-0.1-1.1-0.3-1.6-0.5l-8.1-3.9c-0.3-0.2-0.8-0.3-1.3-0.2
			c-0.5,0.1-1,0.3-1.3,0.7l-2.2,2c-0.3,0.3-0.7,0.5-1.2,0.5c-0.5,0-0.9-0.2-1.2-0.5l-2.5-2.5c-0.3-0.3-0.5-0.7-0.5-1.2
			c0-0.4,0.2-0.8,0.5-1.2L283.2,264.8z M286.1,240.3c-0.4,0.1-0.8,0.2-1.2,0.1s-0.7-0.3-0.9-0.7l-4.7-7.3c-0.2-0.4-0.3-0.8-0.2-1.2
			c0.1-0.4,0.3-0.8,0.7-1l6.6-4.2c0.4-0.2,0.8-0.3,1.3-0.2c0.4,0.1,0.8,0.3,1,0.7l4.6,7.2c0.2,0.4,0.3,0.8,0.2,1.3s-0.3,0.8-0.7,1
			L286.1,240.3z M316.9,244.5c0.1-0.4,0-0.8-0.2-1.2c-0.2-0.3-0.6-0.5-1-0.5l-17.8-1.6c-0.4,0-0.8-0.2-1.1-0.6
			c-0.3-0.3-0.4-0.7-0.4-1.2l0.1-0.8c0-0.4,0.2-0.8,0.5-1.1c0.3-0.3,0.7-0.4,1.2-0.4l9,0.8c0.5,0.1,0.9-0.1,1.1-0.4
			c0.2-0.3,0.3-0.7,0.2-1.1l-1.9-6.9c-0.1-0.4,0-0.9,0.2-1.2c0.2-0.4,0.5-0.7,0.9-0.9l7.7-1.9c0.4-0.1,0.9,0,1.2,0.2
			c0.4,0.2,0.6,0.5,0.7,0.9l2.8,10.8c0.1,0.4,0.3,0.8,0.7,1.2c0.4,0.3,0.8,0.5,1.3,0.6l7.8,0.7c0.4,0.1,0.8,0.2,1.1,0.6
			c0.3,0.3,0.5,0.7,0.4,1.2l-0.1,0.8c-0.1,0.5-0.2,0.9-0.6,1.2c-0.3,0.3-0.7,0.4-1.2,0.3l-2.8-0.2c-0.4,0-0.9,0.1-1.2,0.3
			c-0.4,0.3-0.6,0.6-0.8,1.1l-3.1,11.4c-0.1,0.4-0.2,0.9-0.4,1.2c-0.2,0.4-0.3,0.6-0.5,0.7c-0.1,0.1-0.1,0.2,0,0.4
			c0.2,0.2,0.4,0.5,0.8,0.8l6,4.3c0.4,0.2,0.6,0.6,0.7,1s0,0.8-0.3,1.2l-3.9,5.4c-0.2,0.4-0.6,0.6-1,0.7c-0.4,0.1-0.9-0.1-1.3-0.4
			l-9.8-6.9c-0.4-0.3-0.9-0.5-1.4-0.5c-0.5,0-1,0.1-1.4,0.3l-11.8,6.6c-0.4,0.2-0.8,0.3-1.3,0.2c-0.4-0.1-0.8-0.4-1-0.8l-2.3-4
			c-0.2-0.4-0.2-0.8-0.1-1.2c0.1-0.4,0.4-0.8,0.8-1l8.6-4.8c0.4-0.2,0.6-0.6,0.6-0.9s-0.2-0.7-0.6-0.9l-2.8-2.1
			c-0.4-0.3-0.6-0.7-0.7-1.1c-0.1-0.4,0-0.8,0.3-1.2l3.8-5.3c0.3-0.4,0.7-0.6,1.1-0.7c0.4,0,0.8,0,1.2,0.3l6.6,4.8
			c0.4,0.2,0.8,0.4,1.2,0.5s0.7,0.2,0.9,0.1c0.2-0.1,0.4-0.4,0.6-0.8s0.3-0.8,0.4-1.2L316.9,244.5z"/>
		<path class="st0" d="M377.7,231.2c-0.1,0.1,0,0.2,0.2,0.4c0.2,0.2,0.5,0.5,0.9,0.7l24.6,16.1c0.4,0.3,0.6,0.7,0.7,1.1
			c0.1,0.4,0,0.8-0.2,1.2l-1.8,2.7c-0.2,0.4-0.6,0.6-1,0.7s-0.8,0-1.2-0.3l-25.3-16.6c-0.4-0.2-0.8-0.3-1.3-0.2
			c-0.5,0.1-0.8,0.2-1.1,0.6L355,257.4c-0.3,0.3-0.7,0.5-1.1,0.6c-0.4,0.1-0.8-0.1-1.2-0.4l-3.2-2.8c-0.3-0.3-0.5-0.7-0.6-1.1
			c0-0.4,0.1-0.8,0.4-1.2l21.8-25.2c0.3-0.3,0.7-0.5,1.2-0.6c0.4,0,0.8,0.1,1.2,0.4l3.1,2.7c0.3,0.3,0.6,0.6,0.9,0.9
			C377.7,230.9,377.8,231.1,377.7,231.2z M377,244.3c0.5,0,0.9,0.1,1.2,0.4c0.3,0.3,0.5,0.7,0.5,1.1l1.2,34.3c0,0.5-0.1,0.9-0.4,1.2
			c-0.3,0.3-0.7,0.5-1.2,0.5l-2.3,0.1c-0.4,0-0.8-0.1-1.2-0.4c-0.3-0.3-0.5-0.7-0.5-1.2l-1.2-34.3c0-0.4,0.2-0.8,0.5-1.2
			c0.3-0.3,0.7-0.5,1.1-0.5L377,244.3z"/>
		<path class="st0" d="M174.8,333.2c0.4,0.1,0.8,0.3,1,0.7c0.2,0.4,0.2,0.8,0.1,1.3l-5.8,17.8c-0.1,0.4-0.4,0.8-0.8,1
			c-0.4,0.2-0.8,0.2-1.3,0.1l-2.2-0.7c-0.4-0.1-0.7-0.4-0.9-0.8c-0.2-0.4-0.3-0.9-0.1-1.3l5.9-17.8c0.1-0.4,0.3-0.8,0.7-1
			c0.4-0.2,0.8-0.2,1.3-0.1L174.8,333.2z M190.7,316.5c0.4,0,0.8,0.1,1.1,0.4c0.3,0.3,0.5,0.7,0.5,1.2l0.9,51.9c0,0.4-0.1,0.7-0.4,1
			c-0.3,0.3-0.7,0.4-1.2,0.3l-15-2c-0.4,0-0.8-0.3-1.1-0.6c-0.3-0.4-0.4-0.8-0.3-1.3l0.6-3.8c0-0.5,0.2-0.9,0.6-1.1
			c0.3-0.2,0.7-0.3,1.2-0.3l6.7,1c0.5,0.1,0.9-0.1,1.2-0.3c0.3-0.3,0.4-0.7,0.4-1.2l-0.7-43.4c0-0.4,0.1-0.8,0.4-1.1
			c0.3-0.3,0.7-0.5,1.2-0.6H190.7z M215.2,346.6c0.2,0.4,0.2,0.9,0,1.3c-0.2,0.4-0.5,0.7-0.9,1l-3.9,1.7c-0.4,0.2-0.8,0.3-1.2,0.1
			c-0.4-0.2-0.7-0.5-0.9-0.9l-7.8-17c-0.2-0.4-0.3-0.8-0.1-1.2c0.2-0.4,0.5-0.7,0.9-0.9l3.9-1.8c0.4-0.1,0.9-0.1,1.3,0
			c0.4,0.2,0.7,0.4,1,0.7L215.2,346.6z"/>
		<path class="st0" d="M260.9,365.5c-0.3,0.1-0.7,0.1-1,0c-0.3-0.1-0.6-0.3-0.7-0.7l-6.2-11.5c-0.2-0.2-0.3-0.4-0.4-0.4
			c-0.1,0-0.1,0.2-0.1,0.6l0.3,17.5c0,0.3-0.1,0.7-0.4,0.9c-0.2,0.3-0.6,0.4-1,0.5h-3.8c-0.4,0-0.7-0.1-1-0.3
			c-0.2-0.3-0.4-0.6-0.4-1l-0.4-17.3c0-0.3,0-0.5-0.1-0.6c-0.1,0-0.1,0.2-0.2,0.6l-2,8.3c-0.1,0.3-0.3,0.5-0.6,0.7
			c-0.3,0.2-0.6,0.2-0.9,0.1l-5.5-1.3c-0.3-0.1-0.6-0.3-0.8-0.6c-0.2-0.3-0.2-0.7-0.1-1l2.2-9c0.1-0.3,0.3-0.5,0.6-0.7
			c0.3-0.2,0.6-0.2,1-0.1l5.2,1.2c0.3,0.1,0.6,0.1,0.9-0.1c0.2-0.2,0.4-0.5,0.4-0.8l-0.1-4.5c-0.1-0.3-0.2-0.6-0.4-0.9
			c-0.2-0.3-0.5-0.4-0.9-0.3l-7.5,0.3c-0.3,0.1-0.7,0-1-0.3c-0.3-0.2-0.4-0.5-0.4-0.9l-0.1-3.1c0-0.3,0.1-0.6,0.4-0.9
			c0.2-0.3,0.5-0.4,0.9-0.5l7.5-0.4c0.4,0,0.8-0.1,1-0.4c0.2-0.2,0.4-0.5,0.4-0.9l-0.1-6.5c0-0.4-0.1-0.7-0.4-0.8
			c-0.2-0.1-0.5-0.1-0.9,0l-2,1c-0.3,0.1-0.7,0.1-1,0c-0.3-0.1-0.6-0.3-0.7-0.7l-2.4-5.1c-0.1-0.3-0.2-0.6,0-0.9
			c0.1-0.3,0.4-0.6,0.7-0.8l17.7-8.2c0.3-0.1,0.6-0.2,1,0c0.4,0.1,0.6,0.4,0.7,0.7l2.3,5.1c0.1,0.3,0.2,0.7,0,1
			c-0.1,0.3-0.3,0.5-0.6,0.7l-6.9,3.1c-0.3,0.1-0.6,0.4-0.8,0.8c-0.2,0.4-0.3,0.7-0.3,1l0.1,9.3c0,0.4,0.1,0.7,0.4,0.9
			c0.3,0.2,0.6,0.3,0.9,0.3l8.7-0.4c0.4,0,0.7,0.1,1,0.3c0.2,0.2,0.4,0.6,0.4,1l0.1,2.9c0,0.3-0.1,0.7-0.4,0.9
			c-0.2,0.3-0.5,0.4-0.9,0.4l-8.7,0.4c-0.3,0-0.6,0.1-0.9,0.4c-0.2,0.3-0.4,0.6-0.4,0.9v0.7c0,0.3,0.1,0.6,0.3,0.7
			c0.2,0.1,0.5,0.1,0.8-0.1c0.3-0.1,0.6-0.2,0.9,0c0.3,0.1,0.6,0.3,0.8,0.6l8.1,15.1c0.1,0.2,0.2,0.5,0.1,0.9
			c-0.1,0.3-0.3,0.6-0.6,0.9L260.9,365.5z M292,366.9c0.3,0,0.6,0.1,0.9,0.3c0.2,0.2,0.4,0.5,0.4,0.9v4c0,0.3-0.1,0.6-0.4,0.9
			c-0.2,0.2-0.5,0.4-0.9,0.4l-30.4-0.2c-0.4,0-0.7-0.1-1-0.4c-0.3-0.2-0.4-0.5-0.3-0.9v-4c0-0.3,0.1-0.6,0.4-0.9
			c0.2-0.2,0.6-0.4,1-0.4l12.4,0.1c0.3,0.1,0.6,0,0.9-0.3c0.3-0.2,0.4-0.6,0.3-1l-0.4-5.3c0-0.3-0.1-0.6-0.4-0.9
			c-0.2-0.2-0.6-0.3-1-0.3l-6,0.3c-0.3,0-0.6-0.1-0.9-0.4c-0.2-0.3-0.4-0.6-0.4-0.9l-0.1-1.3c0-0.3,0.1-0.7,0.4-0.9
			c0.2-0.3,0.5-0.4,0.9-0.4l5.9-0.3c0.4,0,0.7-0.1,0.9-0.4c0.2-0.2,0.3-0.6,0.3-1l-0.2-3.7c0-0.4-0.1-0.8-0.4-1
			c-0.3-0.2-0.6-0.4-0.9-0.4l-6.1-0.4c-0.4,0-0.7-0.2-0.9-0.4c-0.2-0.2-0.3-0.5-0.3-0.9l0.1-4c0-0.4,0.2-0.7,0.5-0.9
			c0.3-0.2,0.6-0.3,1-0.3l22.2,1.5c0.4,0,0.7,0.1,0.9,0.4c0.2,0.3,0.3,0.6,0.3,0.9l-0.2,4c-0.1,0.3-0.2,0.6-0.5,0.9
			c-0.3,0.2-0.6,0.3-0.9,0.3l-6.9-0.4c-0.3,0-0.7,0-0.9,0.3c-0.3,0.2-0.4,0.5-0.3,0.9l0.1,3.1c0,0.3,0.2,0.6,0.4,0.9
			c0.2,0.3,0.5,0.4,0.9,0.4l7.9-0.4c0.3,0,0.7,0.1,0.9,0.3c0.3,0.2,0.4,0.5,0.4,0.9l0.2,1.3c0,0.4-0.1,0.7-0.4,1
			c-0.3,0.2-0.6,0.4-0.9,0.4l-7.8,0.3c-0.3,0-0.6,0.1-0.9,0.4c-0.2,0.3-0.3,0.6-0.3,0.9l0.3,5.6c0,0.3,0.1,0.6,0.4,0.9
			c0.3,0.2,0.6,0.4,1,0.4L292,366.9z M293.9,335.6c0.1,0.4,0,0.7-0.2,0.9c-0.2,0.3-0.6,0.4-1,0.4l-26.9,1.3c-0.3,0-0.6-0.1-0.9-0.4
			c-0.3-0.2-0.4-0.5-0.4-0.9l-0.1-11.8c0-0.4,0-0.7,0.3-0.9c0.2-0.2,0.6-0.4,1-0.4h3.9c0.4,0,0.7,0.1,1,0.3c0.2,0.2,0.4,0.5,0.4,0.9
			l0.1,5c0,0.4,0.1,0.7,0.4,0.9c0.3,0.2,0.6,0.3,1,0.3l12.9-0.6c0.3,0,0.6-0.1,0.9-0.4c0.2-0.3,0.3-0.6,0.2-0.9l-0.8-7.2
			c-0.1-0.3-0.2-0.6-0.5-0.9c-0.3-0.2-0.6-0.4-1-0.4l-14.3,0.2c-0.4,0-0.7-0.1-0.9-0.3c-0.2-0.2-0.3-0.5-0.3-0.9l-0.1-4
			c0-0.4,0.1-0.7,0.3-0.9c0.2-0.2,0.5-0.3,0.9-0.3l20.2-0.4c0.3,0,0.7,0,1,0.3c0.3,0.2,0.5,0.5,0.5,0.9L293.9,335.6z"/>
		<path class="st0" d="M367.5,327.7c0,0.5-0.2,0.9-0.5,1.3c-0.3,0.4-0.8,0.6-1.3,0.6l-41.4,0.9c-0.5,0-1,0.2-1.4,0.6
			s-0.6,0.8-0.6,1.3l-4,40c-0.1,0.5-0.3,0.9-0.7,1.2c-0.3,0.3-0.8,0.5-1.3,0.4l-3.5-0.4c-0.5-0.1-0.9-0.3-1.2-0.6
			c-0.3-0.4-0.5-0.8-0.4-1.3l4.6-46.5c0-0.4,0.3-0.9,0.7-1.3c0.4-0.4,0.9-0.6,1.4-0.6l47.8-0.9c0.5,0,1,0.2,1.4,0.5
			c0.4,0.3,0.6,0.8,0.6,1.3L367.5,327.7z M364.9,349.7c0.5,0,0.9,0.2,1.2,0.5c0.2,0.3,0.3,0.7,0.1,1.2l-2.4,7.5
			c-0.1,0.4-0.4,0.8-0.9,1.1c-0.5,0.3-1,0.3-1.4,0.1l-1.8-0.6c-0.4-0.1-0.8-0.4-1-0.9c-0.2-0.4-0.3-0.9-0.2-1.4
			c0.1-0.5,0-0.9-0.2-1.2c-0.2-0.3-0.6-0.5-1.1-0.5l-6.9,0.4c-0.5,0-1,0.2-1.3,0.6c-0.3,0.4-0.5,0.8-0.5,1.3l0.2,15.5
			c0,0.5-0.1,1-0.5,1.3c-0.4,0.3-0.8,0.4-1.3,0.4l-12.3-1.6c-0.5,0-1-0.3-1.3-0.7c-0.3-0.4-0.4-0.9-0.3-1.4l0.3-2.8
			c0-0.5,0.3-1,0.7-1.3c0.4-0.3,0.9-0.4,1.3-0.3l4.8,0.6c0.5,0.1,1-0.1,1.3-0.4c0.3-0.3,0.5-0.7,0.5-1.3L342,358
			c0-0.5-0.2-1-0.6-1.3c-0.4-0.3-0.8-0.5-1.3-0.5l-16.6,0.7c-0.6,0-1.1-0.1-1.4-0.5c-0.3-0.4-0.5-0.8-0.6-1.2l-0.1-1.9
			c0-0.5,0.2-1,0.5-1.4c0.3-0.4,0.8-0.6,1.3-0.6l22.8-0.8c0.5-0.1,0.8-0.2,0.8-0.3c0-0.1-0.2-0.2-0.7-0.3l-14.3-4.5
			c-0.5-0.2-0.9-0.5-1.1-1c-0.2-0.4-0.3-0.9-0.2-1.3l0.7-2.1c0.2-0.5,0.5-0.9,1-1.1c0.4-0.2,0.9-0.3,1.3-0.2l6.5,1.9
			c0.5,0.2,1,0.2,1.6,0.1c0.6-0.1,1.1-0.4,1.5-0.7l1.5-1.3c0.4-0.3,0.5-0.6,0.4-0.9c-0.1-0.2-0.4-0.4-0.9-0.5l-14.5-0.9
			c-0.6,0-1-0.3-1.3-0.6c-0.3-0.4-0.4-0.8-0.4-1.4l0.1-1.9c0-0.5,0.3-0.9,0.7-1.3c0.4-0.3,0.8-0.5,1.3-0.4l27.8,1.9
			c0.4,0,0.7,0.1,0.9,0.4c0.1,0.3,0,0.6-0.4,0.9l-8.8,8c-0.4,0.3-0.5,0.6-0.4,1c0.1,0.3,0.4,0.6,0.8,0.8l2.5,0.7
			c0.5,0.1,0.9,0.5,1.1,0.9c0.2,0.5,0.3,0.9,0.1,1.4l-0.1,0.5c-0.1,0.4,0,0.8,0.2,1.2c0.2,0.3,0.6,0.5,1.2,0.5L364.9,349.7z
			 M336.7,320.7c-0.5-0.1-0.9-0.4-1.2-0.8c-0.3-0.4-0.4-0.8-0.4-1.3l0.8-4.1c0.1-0.5,0.3-1,0.7-1.2c0.4-0.3,0.8-0.4,1.3-0.3l9.1,1.6
			c0.5,0.1,1,0.4,1.2,0.8c0.3,0.4,0.4,0.9,0.3,1.5l-0.7,4c-0.1,0.5-0.4,0.9-0.8,1.2c-0.4,0.3-0.8,0.4-1.3,0.3L336.7,320.7z"/>
		<path class="st0" d="M94.7,430c0-0.5-0.1-0.9-0.3-1.2c-0.3-0.3-0.6-0.4-1.1-0.4l-5.5,0.1c-0.4,0-0.8-0.2-1.2-0.5
			c-0.3-0.3-0.5-0.7-0.5-1.1l-0.1-4.2c0-0.4,0.2-0.8,0.5-1.2c0.3-0.3,0.7-0.5,1.2-0.6l14-0.2c0.4,0,0.8,0.1,1.1,0.4
			c0.3,0.3,0.4,0.7,0.3,1.2l-3.6,28.6c-0.1,0.4,0,0.8,0.3,1.1c0.3,0.3,0.7,0.3,1.1,0.2l2.3-0.6c0.4-0.1,0.8,0,1.2,0.2
			c0.4,0.2,0.7,0.6,0.8,1.1l0.9,3.9c0.1,0.5,0.1,0.9-0.2,1.3c-0.3,0.4-0.6,0.6-1,0.7l-12.8,3c-0.4,0.1-0.8,0-1.1-0.2
			c-0.3-0.2-0.4-0.6-0.3-1L94.7,430z M101.3,414.5c-0.1,0.4-0.3,0.8-0.6,1.1c-0.3,0.3-0.8,0.4-1.3,0.3l-6.4-1
			c-0.4,0-0.8-0.3-1.1-0.6c-0.3-0.4-0.4-0.8-0.2-1.2l0.2-1.9c0-0.5,0.3-0.9,0.6-1.2c0.4-0.2,0.8-0.3,1.2-0.3l6.6,1
			c0.4,0,0.8,0.2,1,0.6c0.2,0.3,0.3,0.8,0.3,1.3L101.3,414.5z M143.2,455c-0.1,0.5-0.3,0.9-0.7,1.2c-0.4,0.3-0.8,0.4-1.3,0.5
			l-31.6,1.2c-0.4,0.1-0.8-0.1-1.2-0.4c-0.3-0.3-0.5-0.7-0.5-1.1l0.5-28.8c0-0.4,0.2-0.8,0.5-1.2c0.3-0.3,0.7-0.5,1.2-0.5l4.3,0.1
			c0.5,0,0.9,0.1,1.2,0.2c0.3,0.1,0.4,0.3,0.4,0.5c0,0.1,0.2,0.3,0.5,0.4c0.3,0.1,0.7,0.2,1.2,0.2l14.2,0.5c0.4,0,0.8-0.1,1.2-0.4
			c0.3-0.3,0.5-0.7,0.6-1.2l0.5-6.4c0-0.4-0.1-0.9-0.3-1.3c-0.3-0.4-0.7-0.7-1.2-0.8l-21.2-6c-0.4-0.1-0.7-0.4-1-0.8
			c-0.2-0.4-0.3-0.9-0.1-1.3l1-3.4c0.1-0.4,0.3-0.7,0.7-1c0.4-0.2,0.8-0.3,1.3-0.1l26.6,7.5c0.4,0.2,0.8,0.5,1.1,0.9
			c0.3,0.4,0.4,0.8,0.4,1.2l-1.5,18.7c0,0.4-0.2,0.8-0.6,1.2c-0.3,0.3-0.7,0.4-1.2,0.3l-20.6-0.7c-0.5,0-0.9,0.1-1.2,0.4
			c-0.3,0.3-0.5,0.7-0.5,1.2l-0.1,12.6c0,0.4,0.1,0.8,0.4,1.2c0.3,0.3,0.7,0.5,1.2,0.4l18.3-0.7c0.4,0,0.8-0.2,1.2-0.4
			c0.4-0.2,0.7-0.5,0.8-0.9c0.1-0.3,0.3-0.6,0.7-0.8c0.4-0.2,0.8-0.2,1.2,0l4,1.2c0.5,0.1,0.9,0.4,1.1,0.8c0.2,0.4,0.3,0.8,0.1,1.2
			L143.2,455z"/>
		<path class="st0" d="M181.1,419.9c0.3,0.4,0.4,0.9,0.2,1.5c-0.2,0.5-0.5,0.9-1,1.2l-2.9,1.5c-0.5,0.3-0.9,0.7-1.2,1.3
			c-0.3,0.5-0.5,1.1-0.5,1.6l0.1,34c0,0.5-0.2,0.9-0.6,1.3c-0.4,0.4-0.9,0.6-1.5,0.6h-5.9c-0.5,0-1-0.2-1.4-0.6
			c-0.4-0.4-0.6-0.8-0.6-1.4l-0.1-28.8c0-0.5-0.1-0.9-0.3-1.2c-0.2-0.3-0.4-0.3-0.7-0.1c-0.3,0.1-0.6,0.1-1-0.1s-0.7-0.6-0.9-1
			l-2-3.8c-0.2-0.4-0.3-0.9-0.1-1.5c0.2-0.5,0.5-0.9,0.9-1.1l14.9-7.8c0.4-0.3,0.9-0.4,1.5-0.2c0.5,0.2,0.9,0.5,1.2,0.9L181.1,419.9
			z M161.6,414.8c-0.3-0.5-0.4-1-0.3-1.5c0.1-0.5,0.4-0.9,0.9-1.2l12.2-7.4c0.5-0.2,1-0.3,1.6-0.2c0.5,0.1,0.9,0.4,1.1,1l2.2,3.6
			c0.3,0.4,0.4,0.9,0.3,1.5c-0.1,0.5-0.4,1-0.9,1.3l-12.2,7.4c-0.5,0.2-1,0.3-1.5,0.2c-0.5-0.1-0.9-0.4-1.2-0.9L161.6,414.8z
			 M217.5,438.9c0.5,0,1,0.2,1.4,0.6s0.6,0.9,0.6,1.5v2.6c0,0.5-0.2,1-0.6,1.4s-0.8,0.6-1.4,0.6H212c-0.5,0-1,0.2-1.4,0.6
			c-0.4,0.4-0.6,0.8-0.6,1.3l0.4,12.7c0,0.6-0.2,1.1-0.5,1.5c-0.3,0.4-0.8,0.6-1.3,0.7L197,463c-0.5,0-1-0.1-1.4-0.4
			c-0.4-0.3-0.6-0.8-0.7-1.4l-0.2-4.2c0-0.6,0.1-1.1,0.4-1.5c0.3-0.4,0.8-0.6,1.4-0.7l3.7-0.3c0.6,0,1.1-0.3,1.5-0.6
			c0.4-0.4,0.5-0.8,0.5-1.4l-0.2-5.1c0-0.5-0.2-0.9-0.6-1.3c-0.4-0.4-0.8-0.6-1.3-0.6H183c-0.5,0-1-0.2-1.4-0.6s-0.6-0.8-0.6-1.4
			v-2.6c0-0.6,0.2-1.1,0.6-1.5s0.8-0.6,1.4-0.6h16.7c0.5,0,0.9-0.1,1.3-0.4c0.4-0.3,0.6-0.7,0.6-1.2s-0.2-0.9-0.6-1.2
			c-0.4-0.3-0.9-0.5-1.5-0.5h-14.3c-0.5,0-0.9-0.2-1.3-0.6c-0.4-0.4-0.6-0.8-0.6-1.4v-1c0-0.6,0.2-1,0.6-1.4
			c0.4-0.4,0.8-0.6,1.3-0.6h29.5c0.5,0,1,0.2,1.4,0.6s0.6,0.8,0.6,1.4v1c0,0.6-0.2,1-0.6,1.4c-0.4,0.4-0.8,0.6-1.4,0.6h-2.9
			c-0.6,0-1.1,0.2-1.5,0.5c-0.4,0.3-0.6,0.7-0.6,1.2c0,0.5,0.3,0.9,0.6,1.2c0.4,0.3,0.9,0.4,1.5,0.4H217.5z M189.6,449
			c0.6,0.1,1,0.4,1.3,0.9c0.2,0.5,0.3,1,0.2,1.5l-1,4.1c-0.2,0.5-0.5,0.9-1,1.2s-0.9,0.4-1.4,0.2l-4.2-1c-0.5-0.1-0.9-0.4-1.2-0.9
			c-0.3-0.4-0.4-0.9-0.3-1.5l1.1-4.2c0.1-0.5,0.4-0.9,0.8-1.2s1-0.3,1.6-0.1L189.6,449z M187.3,429.7c-0.6,0-1.1-0.2-1.4-0.5
			c-0.3-0.3-0.5-0.8-0.5-1.3l-0.1-19.7c0-0.5,0.2-1,0.6-1.4c0.4-0.4,0.9-0.6,1.5-0.7l25.4-2.2c0.6,0,1.1,0.1,1.5,0.4
			c0.4,0.3,0.6,0.8,0.7,1.4l1.3,21.3c0,0.6-0.2,1.1-0.6,1.5c-0.4,0.4-0.8,0.6-1.3,0.6L187.3,429.7z M193.9,412.1
			c-0.5,0-1,0.2-1.4,0.6c-0.4,0.3-0.6,0.7-0.6,1.1c0,0.4,0.2,0.7,0.6,0.9s0.8,0.3,1.4,0.3l10.3-0.7c0.6,0,1.1,0.1,1.5,0.4
			c0.4,0.3,0.6,0.8,0.7,1.4l0.1,1c0,0.5-0.1,1-0.5,1.4c-0.4,0.4-0.8,0.6-1.3,0.7l-10.7,0.8c-0.5,0-1,0.2-1.4,0.6
			c-0.4,0.3-0.6,0.7-0.6,1.2c0,0.4,0.2,0.7,0.6,1s0.8,0.4,1.4,0.4l13.4-0.4c0.5,0,1-0.2,1.3-0.6c0.3-0.4,0.5-0.9,0.4-1.5l-0.4-7.8
			c0-0.5-0.3-1-0.7-1.3c-0.4-0.3-0.8-0.5-1.3-0.4L193.9,412.1z"/>
		<path class="st0" d="M240.5,457.3c-0.2,0.3-0.6,0.6-1,0.6c-0.4,0.1-0.9,0-1.3-0.3l-1.5-1.3c-0.4-0.2-0.7-0.6-0.8-1
			c-0.1-0.4,0-0.8,0.3-1.1l4.6-6.8c0.3-0.3,0.7-0.6,1.1-0.7c0.4-0.1,0.8,0,1.2,0.3l1.6,1.2c0.3,0.3,0.6,0.7,0.6,1.1
			c0.1,0.4,0,0.8-0.3,1.2L240.5,457.3z M279.6,440c-0.1,0.4-0.3,0.8-0.3,1.2c-0.1,0.3-0.1,0.4-0.2,0.3h-0.2
			c-0.1,0.1-0.3,0.1-0.4,0.1s-0.3,0-0.5,0c-0.2,0-0.4,0-0.6,0l-27.2,1.3c-0.4,0-0.8,0-1.2-0.2c-0.3-0.2-0.5-0.4-0.6-0.7
			c0-0.2,0-0.4,0-0.6c0-0.2,0-0.3-0.1-0.3c-0.1-0.6-0.2-1.2-0.2-1.6l-2.9-18.1c-0.1-0.4,0-0.9,0.3-1.2c0.3-0.4,0.6-0.6,1.1-0.6
			l2.5-0.4c0.5-0.1,0.9-0.1,1.2-0.1c0.3,0,0.5,0.1,0.5,0.2c0,0,0.2,0.1,0.5,0.2c0.3,0.1,0.7,0.1,1.2,0.1h7.8c0.4,0,0.8-0.2,1.1-0.5
			c0.3-0.3,0.4-0.7,0.3-1.2l-1.3-10.2c-0.1-0.5,0.1-0.9,0.4-1.3c0.3-0.3,0.7-0.5,1.1-0.6l2.5-0.4c0.4,0,0.8,0.1,1.2,0.3
			c0.3,0.2,0.5,0.6,0.6,1.1l0.3,1.9c0,0.4,0.2,0.8,0.6,1c0.3,0.2,0.7,0.3,1.2,0.1l6.5-1.7c0.4-0.1,0.8-0.1,1.2,0.1
			c0.4,0.2,0.7,0.6,0.8,1l0.1,0.7c0.1,0.5,0,0.9-0.2,1.3c-0.2,0.3-0.5,0.6-0.9,0.8l-7,1.9c-0.4,0.1-0.8,0.4-1.1,0.8
			c-0.3,0.4-0.4,0.8-0.3,1.3l0.1,1.8c0,0.4,0.3,0.8,0.6,1.2c0.4,0.3,0.8,0.5,1.2,0.5h12.5c0.5,0,0.9,0.1,1.2,0.4
			c0.3,0.3,0.3,0.7,0.2,1.2L279.6,440z M250.1,458.8c-0.3-0.2-0.6-0.6-0.8-1c-0.2-0.4-0.1-0.8,0.1-1.2l3.9-8.1
			c0.1-0.4,0.4-0.7,0.9-0.8c0.4-0.1,0.8-0.1,1.2,0l2.5,1.2c0.4,0.2,0.7,0.6,0.8,1c0.1,0.4,0.1,0.8,0,1.2l-3.9,8.2
			c-0.2,0.4-0.5,0.7-1,0.8c-0.4,0.1-0.9,0.1-1.3-0.1L250.1,458.8z M253.2,423.5c-0.4,0-0.8,0.2-1.1,0.5c-0.3,0.3-0.4,0.7-0.3,1.2
			l1.6,9.9c0,0.4,0.3,0.8,0.7,1.1c0.4,0.3,0.8,0.4,1.2,0.4l19.6-1c0.4,0,0.9-0.2,1.2-0.5c0.4-0.3,0.6-0.7,0.8-1.1l1.8-8.8
			c0.1-0.4,0-0.8-0.2-1.2c-0.2-0.3-0.6-0.5-1-0.5H253.2z M266.2,451.5c-0.1-0.4-0.1-0.9,0.1-1.3c0.2-0.4,0.5-0.7,0.9-0.8l2.5-0.8
			c0.5-0.2,0.9-0.2,1.3,0c0.4,0.2,0.6,0.5,0.7,1l2.2,6.6c0.1,0.4,0,0.8-0.1,1.3c-0.2,0.4-0.5,0.7-1,0.8l-2.5,0.8
			c-0.4,0.2-0.8,0.2-1.2,0c-0.4-0.2-0.7-0.5-0.9-1L266.2,451.5z M290.8,461.2c-0.3,0.2-0.7,0.3-1.1,0.3c-0.4-0.1-0.8-0.2-1.1-0.6
			l-8.1-10c-0.3-0.3-0.4-0.7-0.4-1.2c0-0.5,0.2-0.9,0.6-1.1l2.1-1.7c0.3-0.3,0.7-0.5,1.2-0.4c0.4,0.1,0.8,0.2,1.1,0.6l8.1,9.9
			c0.3,0.4,0.4,0.8,0.4,1.3c0,0.4-0.2,0.8-0.6,1.2L290.8,461.2z"/>
		<path class="st1" d="M324.8,440.7c0.4,0.2,0.6,0.6,0.7,1c0,0.4-0.1,0.8-0.4,1.2l-11.7,15.7c-0.2,0.3-0.6,0.5-1,0.6
			c-0.4,0.1-0.8,0-1.2-0.3l-2.7-1.9c-0.3-0.3-0.5-0.7-0.6-1.1c0-0.4,0-0.8,0.3-1.2l11.7-15.5c0.3-0.4,0.7-0.7,1.1-0.7
			c0.4,0,0.8,0.1,1.2,0.4L324.8,440.7z M311.1,414.3c-0.4-0.1-0.7-0.4-0.9-0.9c-0.2-0.4-0.2-0.9,0-1.3l1.4-3
			c0.1-0.4,0.4-0.7,0.9-0.9c0.4-0.2,0.8-0.1,1.2,0.1l9.6,4.3c0.4,0.2,0.7,0.5,0.9,0.9c0.1,0.4,0.1,0.8,0,1.2l-1.4,3
			c-0.1,0.4-0.4,0.7-0.9,0.9c-0.4,0.2-0.8,0.2-1.2,0L311.1,414.3z M322.6,426.8c0.5,0,0.9,0.2,1.2,0.5c0.3,0.3,0.4,0.7,0.4,1.2
			l-0.2,3.4c0,0.4-0.2,0.8-0.6,1.1c-0.3,0.3-0.7,0.4-1.1,0.3l-10.5-0.7c-0.4,0-0.8-0.2-1.2-0.6c-0.3-0.3-0.5-0.7-0.4-1.2l0.2-3.2
			c0-0.5,0.2-1,0.6-1.2c0.3-0.3,0.7-0.4,1.2-0.3L322.6,426.8z M339,439.7c0.3,0.3,0.5,0.7,0.4,1.2c-0.1,0.5-0.3,0.9-0.6,1.2
			l-8.7,7.2c-0.3,0.3-0.7,0.4-1.2,0.4c-0.4,0-0.8-0.2-1.2-0.6l-2-2.6c-0.3-0.3-0.4-0.7-0.4-1.2c0-0.5,0.2-0.9,0.6-1.2l8.7-7.2
			c0.3-0.3,0.7-0.4,1.2-0.4c0.4,0,0.8,0.2,1.1,0.6L339,439.7z M352.5,420.9c0.2-0.4,0.3-0.7,0.2-1c-0.1-0.3-0.4-0.4-0.9-0.3
			l-4.9,0.4c-0.4,0-0.9,0.1-1.4,0.4c-0.5,0.3-0.9,0.6-1.2,1l-9,12c-0.3,0.3-0.7,0.5-1.1,0.6c-0.4,0-0.8,0-1.2-0.3l-2.5-1.9
			c-0.4-0.3-0.6-0.7-0.7-1.1c-0.1-0.4,0-0.8,0.3-1.2l5.5-7.3c0.2-0.4,0.3-0.7,0.2-0.9c-0.1-0.2-0.4-0.3-0.9-0.3l-0.6,0.1
			c-0.4,0.1-0.8-0.1-1.1-0.4c-0.3-0.3-0.5-0.7-0.6-1.2l-0.2-3.2c-0.1-0.5,0.1-0.9,0.3-1.2c0.3-0.3,0.6-0.5,1.1-0.6l6.4-0.4
			c0.4,0,0.9-0.2,1.4-0.5c0.5-0.3,0.9-0.6,1.2-1l0.7-1c0.3-0.3,0.4-0.6,0.3-0.9s-0.4-0.3-1-0.3l-7.2,0.5c-0.5,0-1-0.1-1.3-0.4
			s-0.5-0.7-0.6-1.2l-0.1-3.2c-0.1-0.5,0.1-1,0.4-1.3c0.3-0.3,0.7-0.5,1.1-0.5l22.6-1.5c0.5,0,0.9,0.1,1.2,0.4
			c0.3,0.3,0.5,0.7,0.5,1.1l0.3,3.2c0,0.5-0.1,1-0.4,1.3c-0.3,0.3-0.7,0.5-1.2,0.6l-3.4,0.1c-0.4,0-0.9,0.2-1.5,0.5
			c-0.5,0.3-0.9,0.6-1.2,0.9l-0.6,0.8c-0.2,0.4-0.3,0.7-0.2,0.9c0.1,0.2,0.4,0.3,0.9,0.3l10.7-0.9c0.5,0,0.9,0.1,1.2,0.4
			c0.3,0.3,0.5,0.7,0.6,1.1l0.2,3.3c0,0.5-0.1,0.9-0.4,1.2c-0.3,0.3-0.7,0.5-1.2,0.6l-5.4,0.4c-0.4,0.1-0.7,0.2-0.8,0.4
			c-0.1,0.2,0.1,0.4,0.5,0.6l7.4,4.8c0.4,0.2,0.7,0.6,0.8,1c0.1,0.4,0,0.9-0.3,1.3l-1.7,2.7c-0.2,0.4-0.6,0.7-1,0.8
			c-0.4,0.1-0.9,0-1.3-0.3l-9.4-6c-0.4-0.2-0.6-0.6-0.7-1c-0.1-0.4,0-0.8,0.2-1.2L352.5,420.9z M348.3,429.3c0.4,0,0.8,0.2,1.2,0.5
			c0.3,0.3,0.5,0.7,0.5,1.2v32c0,0.4-0.1,0.8-0.4,1c-0.3,0.2-0.7,0.2-1.1,0.1l-12.6-5c-0.4-0.1-0.7-0.4-0.9-0.9
			c-0.2-0.4-0.2-0.8-0.1-1.2l1.3-3.1c0.1-0.3,0.4-0.6,0.8-0.8c0.4-0.2,0.8-0.2,1.3,0l3.7,1.4c0.4,0.1,0.7,0.1,1-0.1
			c0.3-0.2,0.4-0.5,0.4-0.9v-22.4c0-0.4,0.2-0.8,0.5-1.2c0.3-0.3,0.7-0.5,1.2-0.5H348.3z M370.3,442.7c0.3,0.3,0.4,0.7,0.4,1.1
			c0,0.4-0.2,0.8-0.5,1.2l-2.4,2.2c-0.3,0.3-0.7,0.5-1.2,0.5c-0.4,0-0.8-0.2-1.1-0.6l-1.6-1.6c-0.2-0.3-0.6-0.5-1.1-0.5
			s-0.9,0.1-1.2,0.4l-3,2.9c-0.3,0.3-0.7,0.5-1.1,0.5c-0.4,0-0.8-0.2-1-0.6l-4.8-7.1c-0.2-0.3-0.3-0.7-0.3-1.2
			c0.1-0.4,0.3-0.8,0.7-1l2.6-1.8c0.4-0.3,0.8-0.4,1.3-0.3c0.5,0.1,0.8,0.3,1,0.7l0.4,0.6c0.2,0.3,0.6,0.5,1,0.6
			c0.4,0,0.8-0.1,1.1-0.4l2.2-2.2c0.3-0.3,0.7-0.4,1.2-0.4c0.5,0,0.9,0.2,1.2,0.4L370.3,442.7z"/>
		<path class="st1" d="M410.8,412.9c0.6,0,1.1,0.2,1.4,0.5c0.3,0.3,0.5,0.8,0.5,1.3V460c0,0.6-0.2,1-0.5,1.3
			c-0.3,0.3-0.8,0.4-1.3,0.3l-14.6-2.5c-0.4-0.1-0.8-0.4-1.2-0.8c-0.3-0.4-0.4-0.8-0.3-1.3l0.4-2.8c0.1-0.5,0.4-0.9,0.8-1.2
			c0.4-0.3,0.8-0.4,1.3-0.4l6.8,1.3c0.5,0.1,0.9,0,1.3-0.3c0.4-0.3,0.6-0.7,0.6-1.2v-30.9c0-0.5-0.1-1-0.4-1.3
			c-0.3-0.3-0.6-0.5-1-0.5c-0.5,0-0.9,0.2-1.3,0.5c-0.4,0.3-0.6,0.8-0.8,1.3l-5.6,22.9c-0.1,0.5-0.4,0.9-0.9,1.1
			c-0.4,0.2-0.9,0.3-1.5,0.2l-2.8-0.7c-0.5-0.1-0.9-0.4-1.1-0.9c-0.2-0.5-0.3-0.9-0.2-1.4l5.3-21.3c0.1-0.5,0.1-1-0.2-1.3
			c-0.3-0.3-0.7-0.5-1.2-0.5H389c-0.5,0-0.9-0.2-1.3-0.6s-0.6-0.8-0.6-1.4v-2.8c0-0.5,0.2-0.9,0.6-1.3c0.4-0.3,0.8-0.5,1.3-0.5h7.1
			c0.5,0,1-0.2,1.4-0.6s0.7-0.8,0.9-1.2l1.1-4.6c0.1-0.5,0.4-0.9,0.8-1.2s0.9-0.3,1.5-0.2l2.7,0.7c0.5,0.1,0.9,0.4,1.2,0.9
			c0.3,0.5,0.4,0.9,0.3,1.4l-0.8,3c-0.1,0.4,0,0.9,0.3,1.2c0.3,0.4,0.7,0.6,1.2,0.6H410.8z M439,412.7c0.5,0,0.9,0.1,1.2,0.4
			c0.3,0.3,0.5,0.7,0.5,1.3l-2.2,29.6c0,0.5-0.3,1-0.6,1.5c-0.4,0.4-0.8,0.7-1.4,0.7l-17.2,2.9c-0.5,0-0.9-0.1-1.3-0.3
			c-0.4-0.3-0.6-0.7-0.6-1.2l-1.2-30.4c0-0.5,0.2-0.9,0.5-1.3c0.3-0.4,0.8-0.6,1.3-0.7L439,412.7z M433.5,421.8
			c0-0.6-0.1-1.1-0.4-1.4c-0.3-0.3-0.7-0.4-1.3-0.3l-6.9,0.7c-0.5,0-0.9,0.3-1.3,0.7c-0.3,0.4-0.5,0.9-0.5,1.4l0.7,16.8
			c0,0.5,0.2,0.9,0.6,1.2c0.4,0.3,0.8,0.4,1.3,0.3l4.8-0.8c0.5-0.1,0.9-0.3,1.3-0.7c0.4-0.4,0.6-0.9,0.6-1.5L433.5,421.8z"/>
	</g>
	<g>
		<g>
			<path class="st1" d="M425.8,467.8c-6.7,1.6-12.9,1.5-21.4,3.7c-9.5,2.4-19.2,4.3-28.9,5.8c-4.1,0.6-7.9,1.1-13.3,1.5
				c-4.7,0.4-9.5,0.6-14.3,0.6c-4,0-8-0.2-11.9-0.6c-1.1-0.1,2.3,0.5-0.4-0.1c-0.8-0.2-1.7-0.3-2.5-0.5c-1-0.3-6-2.2-2.4-0.6
				c-5.8-2.6-12.7-1.7-16.2,4.3c-3,5.1-1.6,13.6,4.3,16.2c18.5,8.3,41.1,5.1,60.4,2.2c18.4-2.8,40.8-6.2,52.9-21.7
				C436,473.7,432.6,466.2,425.8,467.8L425.8,467.8z"/>
		</g>
	</g>
</g>
</svg>
