<?xml version="1.0" encoding="utf-8"?>
<!-- Generator: Adobe Illustrator 23.0.2, SVG Export Plug-In . SVG Version: 6.00 Build 0)  -->
<svg version="1.1" id="图层_1" xmlns="http://www.w3.org/2000/svg" xmlns:xlink="http://www.w3.org/1999/xlink" x="0px" y="0px"
	 viewBox="0 0 566.9 566.9" style="enable-background:new 0 0 566.9 566.9;" xml:space="preserve">
<style type="text/css">
	.st0{fill:#FFFFFF;}
</style>
<g>
	<path class="st0" d="M266.5,151.3h33.2v33.2h-33.2V151.3z M266.5,382.5h33.2v33.2h-33.2V382.5z M415.7,267.3v33.2h-33.2v-33.2
		H415.7z M184.4,267.3v33.2h-33.2v-33.2H184.4z M364.2,178l23.1,23.1l-23.1,23.1L341.1,201L364.2,178z M202.6,341.2l23.1,23.1
		l-23.1,23.1l-23.1-23.1L202.6,341.2z M177.9,202.7l23.1-23.1l23.1,23.1l-21.4,23.1L177.9,202.7z M341.1,364.3l23.1-23.1l23.1,23.1
		l-23.1,23.1L341.1,364.3z M283.4,365.9c-46.2,0-82.4-36.3-82.4-82.4s36.3-82.4,82.4-82.4c46.2,0,82.4,36.3,82.4,82.4
		S329.6,365.9,283.4,365.9L283.4,365.9z M283.4,333"/>
</g>
</svg>
